<?xml version="1.0" standalone="no"?>
<!DOCTYPE svg PUBLIC "-//W3C//DTD SVG 1.1//EN" "http://www.w3.org/Graphics/SVG/1.1/DTD/svg11.dtd" >
<svg xmlns="http://www.w3.org/2000/svg">
<metadata></metadata>
<defs>
<font id="WisdomScriptAIRegular" horiz-adv-x="1005" >
<font-face units-per-em="2048" ascent="1536" descent="-512" />
<missing-glyph horiz-adv-x="624" />
<glyph horiz-adv-x="0" />
<glyph horiz-adv-x="2048" />
<glyph unicode=" "  horiz-adv-x="624" />
<glyph unicode="&#x09;" horiz-adv-x="624" />
<glyph unicode="&#xa0;" horiz-adv-x="624" />
<glyph unicode="!" horiz-adv-x="661" d="M29 102q0 53 35.5 89t87.5 36t88 -36t36 -89q0 -52 -35.5 -87t-88.5 -35t-88 35t-35 87zM377 311h-215l669 1164h213z" />
<glyph unicode="&#x22;" horiz-adv-x="724" d="M205 1108l4 82h12q37 0 76.5 20.5t58.5 49.5q-46 8 -74 35.5t-28 66.5q0 54 32.5 83.5t75.5 29.5q48 0 84.5 -31t36.5 -84q0 -105 -84.5 -178.5t-179.5 -73.5h-14zM512 1108l4 82h12q37 0 77 20.5t59 49.5q-46 8 -74.5 35.5t-28.5 66.5q0 54 33 83.5t76 29.5 q48 0 84.5 -31t36.5 -84q0 -70 -41.5 -129.5t-102 -91t-121.5 -31.5h-14z" />
<glyph unicode="#" horiz-adv-x="1538" d="M854 0h-195l158 276h-256l-158 -276h-194l158 276h-287l82 144h287l118 205h-284l82 143h284l148 256h192l-147 -256h258l147 256h193l-148 -256h277l-82 -143h-277l-116 -205h272l-82 -144h-272zM760 625l-117 -205h256l119 205h-258z" />
<glyph unicode="$" horiz-adv-x="870" d="M371 520q-62 115 -62 211q0 82 27 147t71.5 104.5t98.5 60t112 20.5q22 0 72 -8l121 211h160l-154 -269q101 -80 101 -202q0 -80 -41 -166h-179q47 81 47 149q0 59 -34 95t-80 36q-47 0 -90 -42.5t-43 -118.5q0 -27 10 -58.5t19.5 -51t32.5 -61t32 -57.5q61 -113 61 -211 q0 -82 -27 -147t-71.5 -104.5t-98.5 -60t-112 -20.5q-14 0 -59 5l-101 -179h-159l127 224q-97 57 -127.5 159.5t20.5 225.5h178q-26 -42 -31.5 -92t8 -91.5t48.5 -69.5t84 -28q47 0 90 43t43 119q0 27 -10 58t-20 51t-32.5 60.5t-31.5 57.5z" />
<glyph unicode="%" horiz-adv-x="1177" d="M-94 0h215l1147 1024h-213zM319 868q0 74 51 125t124 51q74 0 125 -51t51 -125q0 -73 -51 -123.5t-125 -50.5t-124.5 50.5t-50.5 123.5zM524 152q0 74 50.5 125t123.5 51q74 0 125 -51t51 -125q0 -73 -51 -124t-125 -51q-73 0 -123.5 50.5t-50.5 124.5zM438 868 q0 -23 16.5 -39t39.5 -16t39 16t16 39t-16 39.5t-39 16.5t-39.5 -16.5t-16.5 -39.5zM643 152q0 -23 16 -39.5t39 -16.5t39.5 16.5t16.5 39.5t-16.5 39t-39.5 16t-39 -16t-16 -39z" />
<glyph unicode="&#x26;" horiz-adv-x="800" d="M-104 -197l112 199q-59 33 -88 91t-18 147.5t71 193.5q68 120 139 177t158 73q-39 46 -37 123t52 164q55 96 118.5 149.5t122.5 70.5t142 19l96 166h160l-111 -194q85 -46 109.5 -142.5t-29.5 -210.5h-209l18 31q62 107 32 174q-23 49 -81 43q-77 -8 -150 -109 q-13 -19 -26 -40l-24 -43q-36 -62 -28 -104.5t38.5 -64.5t71.5 -22l-58 -98q-188 0 -284 -162l-72 -123q-63 -110 -18 -163q33 -40 101 -25q79 19 128 97q3 4 6 9l41 72l211 2l-8 -16l-23 -41q-78 -134 -188.5 -204t-220.5 -73l-95 -166h-159z" />
<glyph unicode="'" horiz-adv-x="358" d="M268 1098l4 82h13q37 0 76.5 20t58.5 49q-46 8 -74.5 36t-28.5 67q0 54 33 83t76 29q48 0 84.5 -31t36.5 -83q0 -105 -84.5 -178.5t-179.5 -73.5h-15z" />
<glyph unicode="(" horiz-adv-x="774" d="M1096 1591l73 -53q-112 -50 -222.5 -133.5t-205 -185.5t-180 -222.5t-151 -243.5t-114.5 -248t-73.5 -237.5t-25 -211.5t27.5 -169l-112 -53q-64 129 -69 298.5t41.5 345t142 354.5t223.5 328t296 264.5t349 166.5z" />
<glyph unicode=")" horiz-adv-x="962" d="M-133 -166l-82 53q100 44 199 115.5t186 159t168 189.5t146.5 211t119.5 220t89.5 219t54.5 206t16.5 183.5t-27.5 147.5l113 53q64 -129 69 -298.5t-41.5 -345t-142 -354.5t-223.5 -328t-296 -264.5t-349 -166.5z" />
<glyph unicode="*" horiz-adv-x="983" d="M477 1413l121 -213l125 215h145l-161 -278h319l-72 -125h-247l122 -215l-108 -62l-123 215l-123 -213h-143l157 275h-317l72 125h248l-123 217z" />
<glyph unicode="+" horiz-adv-x="1116" d="M451 129h-195l195 338h-318l82 143h320l174 299h192l-174 -299h324l-82 -143h-324z" />
<glyph unicode="," horiz-adv-x="258" d="M29 -152l4 82h12q37 0 76.5 20.5t58.5 49.5q-46 8 -74 35.5t-28 66.5q0 54 32.5 83.5t75.5 29.5q48 0 84.5 -31t36.5 -84q0 -105 -84.5 -178.5t-179.5 -73.5h-14z" />
<glyph unicode="-" horiz-adv-x="1062" d="M133 467l82 143h733l-82 -143h-733z" />
<glyph unicode="." horiz-adv-x="493" d="M53 96q0 50 34 84.5t83 34.5q50 0 84.5 -34.5t34.5 -84.5q0 -49 -34.5 -82.5t-84.5 -33.5t-83.5 33.5t-33.5 82.5z" />
<glyph unicode="/" horiz-adv-x="1167" d="M121 0h-215l1601 1432h213z" />
<glyph unicode="0" horiz-adv-x="890" d="M53 434l92 158l105 182q89 154 187 216.5t227 62.5q100 0 167.5 -63t75.5 -160t-53 -212l-215 -372q-102 -177 -264 -245q-137 -57 -253 -15q-102 37 -133 136q-42 131 64 312zM362 592l-161 -281q-63 -110 -18 -163q33 -40 101 -25q79 19 128 97q3 4 6 9l272 469 q62 107 32 174q-23 49 -81 43q-77 -8 -150 -109q-13 -19 -26 -40z" />
<glyph unicode="1" horiz-adv-x="702" d="M254 727l-45 133q8 3 43 15t44.5 15.5t41 15t43.5 16.5t40 16.5t42.5 19.5t39 21t42 24.5t39 26.5t41.5 31l82 -187l-422 -731h188l-82 -143h-555l82 143h176l387 670q-85 -46 -227 -86z" />
<glyph unicode="2" horiz-adv-x="956" d="M-63 137q101 23 180 49.5t163.5 69t154 99t140.5 139.5t134 190q62 105 30 170q-23 49 -81 44q-77 -7 -146 -102q-13 -18 -25 -38l-59 -94h-217l80 139q93 164 249 217q132 45 247 -6q104 -45 135 -145q35 -116 -45 -259q-55 -98 -127 -180t-149 -138t-148 -93.5 t-142 -61.5h375l-80 -137h-749z" />
<glyph unicode="3" horiz-adv-x="937" d="M315 352l80 137q118 0 187.5 37t119.5 123q30 52 43.5 98t9.5 79t-23 52t-52 19q-43 0 -93 -37.5t-93 -111.5l-43 -74h-218l56 100q89 154 186.5 216.5t226.5 62.5q83 0 141.5 -42t81 -106t15 -141.5t-46.5 -145.5q-68 -118 -144.5 -174.5t-181.5 -76.5q35 -47 49.5 -105 t3.5 -131.5t-53 -146.5q-49 -85 -110.5 -145t-126 -90.5t-121 -43t-115.5 -12.5q-95 0 -157 49.5t-80.5 121.5t-1.5 155.5t69 150.5h201q-10 -11 -24 -31.5t-38 -79.5t-24 -114q0 -65 53 -92q64 -33 148 16q79 46 143 156q38 67 50.5 128.5t0.5 104.5t-43.5 68.5t-75.5 25.5 z" />
<glyph unicode="4" horiz-adv-x="948" d="M-133 0l-45 133q166 129 335.5 271.5t292 254.5t221 206t149.5 145l50 51l82 -187l-422 -731h211l-82 -143h-210l-164 -287h-189l164 287h-393zM659 692q-293 -311 -596 -549h279z" />
<glyph unicode="5" horiz-adv-x="878" d="M254 424l-14 14l-90 86l290 500h551l-94 -164h-369l-133 -233q10 2 35 2q100 0 167.5 -62.5t75.5 -159t-52 -212.5l-146 -258q-96 -169 -258 -223q-135 -44 -253 6q-102 43 -134 137q-35 103 35 227l47 84h209l-78 -139q-60 -105 -18 -158q33 -40 104 -23q85 20 145 108 q8 11 15 24l168 294q28 49 34.5 93.5t-4.5 74.5t-35.5 47.5t-56 17.5t-69.5 -21t-72 -62z" />
<glyph unicode="6" horiz-adv-x="917" d="M1004 1012l-152 -11q16 76 -37 102q-53 25 -126 -14q-70 -36 -114 -114l-40 -72q40 12 90 12q101 0 159 -61t57 -162t-63 -211l-145 -258q-96 -170 -256 -223q-131 -44 -244 6q-100 44 -128 140q-31 102 38 225l47 84l320 563q95 167 245 222q124 46 227 -3 q96 -45 118 -149q7 -37 4 -76zM406 678l-127 -223l-78 -140q-61 -106 -18 -158q34 -41 104 -23q85 21 145 109q7 11 14 23l168 295q24 42 32 81t1 66t-23.5 47.5t-42 25t-54 -2t-61 -33t-60.5 -67.5z" />
<glyph unicode="7" horiz-adv-x="788" d="M137 858l94 166h594l93 -150q-20 -20 -54.5 -56.5t-139 -156.5t-204.5 -247t-233 -319t-242 -382h-209q197 331 420 627t418 518h-537z" />
<glyph unicode="8" horiz-adv-x="897" d="M664 246q-102 -178 -266 -246q-136 -57 -251 -14q-102 38 -133 138q-39 130 64 310l41 72q117 206 307 242q-12 34 -12 75q0 91 63 197q72 127 152.5 178t187.5 51q87 0 142 -56t55 -146q0 -87 -56 -185q-92 -154 -229 -205q43 -60 43.5 -136t-49.5 -171zM252 358 l-27 -47q-63 -110 -18 -163q33 -40 101 -25q79 19 128 97q3 4 6 9l117 201q62 107 32 174q-23 49 -81 43q-77 -8 -150 -109q-13 -19 -26 -40zM676 1018l-78 -137q-39 -68 -7 -108q27 -32 75 -17q46 15 77 69l84 148q45 77 17 122q-22 35 -69 20q-55 -20 -99 -97z" />
<glyph unicode="9" horiz-adv-x="915" d="M-106 12l151 11q-16 -76 37 -102q53 -25 126 14q70 36 114 114l40 72q-44 -12 -90 -12q-66 0 -114 36.5t-68 95.5t-8.5 139.5t57.5 162.5l146 258q96 169 255 223q130 44 243 -6q100 -44 128 -140q29 -103 -39 -225l-47 -84l-319 -563q-94 -166 -247 -222 q-127 -46 -235 2q-99 43 -124 144q-9 38 -6 82zM492 346l126 223l78 140q61 106 18 158q-34 41 -104 23q-85 -21 -145 -109q-7 -11 -14 -23l-168 -295q-31 -54 -43 -99.5t-5 -73.5t24.5 -46.5t46 -18.5t59 10.5t65 39.5t62.5 71z" />
<glyph unicode=":" horiz-adv-x="765" d="M29 96q0 50 33.5 84.5t82.5 34.5t84 -34.5t35 -84.5q0 -49 -34.5 -82.5t-84.5 -33.5q-49 0 -82.5 33t-33.5 83zM438 731q0 50 34 84.5t83 34.5t84 -35t35 -84t-34.5 -83t-84.5 -34q-49 0 -83 34t-34 83z" />
<glyph unicode=";" horiz-adv-x="727" d="M29 -152l4 82h12q37 0 76.5 20.5t58.5 49.5q-46 8 -74 35.5t-28 66.5q0 54 32.5 83.5t75.5 29.5q48 0 84.5 -31t36.5 -84q0 -105 -84.5 -178.5t-179.5 -73.5h-14zM397 668q0 50 34 84t83 34q50 0 84.5 -34.5t34.5 -83.5t-34.5 -83t-84.5 -34t-83.5 33.5t-33.5 83.5z" />
<glyph unicode="&#x3c;" horiz-adv-x="1095" d="M18 436l72 127l1071 481l-114 -204l-805 -383l389 -334l-82 -143z" />
<glyph unicode="=" horiz-adv-x="1003" d="M123 313l82 144h549l-82 -144h-549zM272 569l82 144h549l-82 -144h-549z" />
<glyph unicode="&#x3e;" horiz-adv-x="1095" d="M1077 588l-71 -127l-1072 -481l115 204l805 383l-389 334l82 143z" />
<glyph unicode="?" horiz-adv-x="1001" d="M457 311h-215l202 353l17 30q398 185 483 434q42 123 -7 188q-40 55 -117 34q-101 -26 -191 -163q-44 -67 -80 -155l-164 29q57 228 222 358q133 104 277 103q135 -1 209 -96q58 -75 58 -193q0 -161 -150.5 -331t-384.5 -306h2zM109 96q0 50 33.5 84.5t82.5 34.5 t84 -34.5t35 -84.5q0 -49 -34.5 -82.5t-84.5 -33.5q-49 0 -82.5 33t-33.5 83z" />
<glyph unicode="@" horiz-adv-x="1775" d="M489 -307q-325 69 -472 304q-126 201 -92 467q33 253 197 467q177 231 441 325q218 77 461 44q133 -18 236.5 -67t167 -118t100 -155t42 -178.5t-13.5 -188.5t-60 -184.5t-103 -167t-138 -136.5t-170 -91.5t-194 -33.5q-80 0 -128 38t-56 101q-169 -139 -295 -139 q-128 0 -171 92t25 211l299 516q65 112 169.5 178.5t195.5 66.5q98 0 164 -71t59 -144h121l-344 -602q-33 -63 -24 -89.5t48 -26.5q85 0 165.5 41.5t142 111t105.5 159.5t62.5 186t4.5 192.5t-58.5 177t-137 141.5t-222.5 84q-277 49 -529 -109q-196 -123 -317 -334 q-128 -221 -117 -440q12 -241 193 -383q114 -90 286 -128q92 -21 183.5 -23t171.5 11t161.5 42.5t149.5 65t140.5 87t129.5 99.5t121 111t110.5 113t102.5 114l15 16q22 -9 45.5 -30.5t33.5 -42.5q-71 -85 -143.5 -160.5t-153.5 -147.5t-164.5 -131.5t-172.5 -109.5 t-182.5 -83.5t-189.5 -52.5t-198 -18t-203 23zM748 745l-297 -518q-33 -63 -24 -89.5t48 -26.5q69 0 160 76t184 223l166 290q51 94 9 144q-34 40 -101 23q-82 -20 -140 -113q-2 -5 -5 -9z" />
<glyph unicode="A" horiz-adv-x="2035" d="M2021 430l15 16q22 -9 46 -30.5t34 -42.5q-53 -62 -88 -101.5t-84 -90.5t-86.5 -82.5t-80.5 -61t-83 -43.5t-78 -14q-74 0 -109.5 44t-34 110t30.5 149l76 217h-287q-88 -117 -166 -202.5t-171.5 -162t-194.5 -116t-207 -39.5q-109 0 -201.5 35t-158 95t-105.5 144.5 t-48.5 180t17.5 204.5t88 215q57 98 139 169t170.5 107.5t183.5 41.5t178.5 -22t154 -90.5t110.5 -156.5l-170 -65q-29 72 -83 116t-121 52.5t-137.5 -12t-141 -81t-123.5 -151.5q-62 -106 -77.5 -214t14.5 -193t111 -138.5t200 -52.5q87 1 181 50.5t181 132t177 188 t176.5 220t172.5 226.5t171.5 208.5t166.5 165.5t164 97t158 4l-422 -1229q-14 -42 -17.5 -64.5t2.5 -31t22 -8.5q29 0 124.5 87t210.5 220zM1827 1206q-54 -55 -117 -134t-108.5 -142t-119.5 -168t-114 -160h246z" />
<glyph unicode="B" horiz-adv-x="1554" d="M299 967l86 -109q-101 -65 -150.5 -177.5t-36.5 -237t85 -224.5q41 49 82 121l573 991q69 121 164.5 185.5t187.5 64.5q176 0 256 -114q68 -98 36 -234q-34 -142 -160 -243q-75 -60 -171 -93q75 -50 121 -122.5t60.5 -154t1.5 -170.5t-50.5 -173t-101.5 -160 t-144.5 -132.5t-186.5 -90t-222 -33.5q-135 0 -250 36t-194.5 96.5t-136 142t-81.5 171.5t-24 185t29.5 182t86.5 164t140 129zM725 25q148 0 268.5 76.5t174.5 190t61 231.5t-69.5 214.5t-219.5 126.5l-57 6l-359 -620q-57 -95 -106 -152q130 -73 307 -73zM1126 1290 l-172 -295q168 3 264 48t156 157q50 95 19 170q-25 58 -82 62q-78 6 -153 -94q-17 -22 -32 -48z" />
<glyph unicode="C" horiz-adv-x="1101" d="M381 760l332 571q69 121 164.5 185.5t187.5 64.5q121 0 202 -87.5t81 -229.5q0 -135 -86 -287q-81 -141 -194 -235.5t-227 -134.5t-233 -40q-50 0 -121 11l-59 -105q-46 -78 -57 -147.5t8.5 -115.5t60 -72.5t95.5 -26.5q276 0 552 319l15 16q24 -6 47.5 -27.5t32.5 -45.5 q-75 -87 -141 -149.5t-153 -122t-189 -90.5t-216 -31q-109 0 -184.5 49t-105 126t-17.5 175t68 194l63 111q-127 66 -197.5 180t-70.5 244q0 112 54.5 215t164.5 182l70 -125q-68 -53 -103 -123t-35 -145q0 -92 49.5 -173.5t141.5 -129.5zM565 709h43q118 0 228.5 59 t184 145.5t117.5 181.5t44 171q0 61 -29.5 96t-87.5 35q-47 0 -97.5 -39t-95.5 -117z" />
<glyph unicode="D" horiz-adv-x="1918" d="M561 182l23 41l616 1065q-5 0 -15.5 1t-15.5 1q-101 0 -190.5 -30t-152 -78.5t-105.5 -112t-58.5 -129.5t-3.5 -132.5t54 -119.5l-123 -110q-67 60 -95 150t-17 186t63.5 193t135 173t209 124t275.5 48q380 0 568 -229q149 -181 145 -459q-4 -258 -135 -497 q-129 -235 -331 -354q-160 -93 -337 -93q-69 0 -130.5 11t-120 35t-94 42.5t-93.5 52.5q-135 -170 -342 -170q-125 0 -194.5 63.5t-69.5 153.5q0 94 78.5 165t220.5 71q107 0 235 -62zM1067 -16q97 0 190 46t166.5 122.5t130 178t88.5 210t35.5 219.5t-23 206.5t-94.5 172 t-171 114.5l-668 -1159q91 -53 171.5 -81.5t174.5 -28.5zM315 -45q62 0 99 20.5t69 65.5q-93 39 -178 39q-43 0 -67.5 -18.5t-24.5 -43.5q0 -27 26 -45t76 -18z" />
<glyph unicode="E" horiz-adv-x="1398" d="M973 485l125 88q65 -76 86.5 -168t4 -180t-69.5 -172t-126.5 -147t-175 -101t-207.5 -38q-161 0 -291.5 63.5t-209 188t-78.5 288.5q0 121 39.5 231t108.5 194.5t160 146.5t198 93t217 27q-41 80 -41 166q0 162 102 269.5t258 107.5q146 0 246 -82.5t100 -224.5 q0 -47 -13 -91t-31.5 -73t-36.5 -51t-31 -32l-13 -11l-114 121q1 0 8.5 5.5t18.5 17.5t21 28t17.5 41.5t7.5 54.5q0 94 -75 137q-69 39 -148 10q-88 -31 -122 -126q-17 -48 -17 -107q0 -50 16.5 -92.5t42 -69t43 -40.5t31.5 -21q0 -2 4 -2l-63 -111q-28 9 -68 29 q-66 24 -136.5 26t-136.5 -17.5t-128 -54.5t-113.5 -87.5t-90 -114.5t-60 -138t-21.5 -155q0 -114 61.5 -203.5t155 -134.5t197.5 -45q87 0 167 37t133 98.5t82.5 133.5t21.5 149.5t-56 138.5z" />
<glyph unicode="F" horiz-adv-x="1550" d="M709 1051h-183q-2 12 -2 36q0 76 32 137t84.5 100t122 65.5t141 37.5t145.5 11q18 0 89 -0.5t96.5 0t86.5 3t95.5 9.5t85 18t93 29t84.5 43l111 -186h-2l-340 -590h176l-55 -102h-180l-240 -416q-65 -113 -144 -197.5t-161 -134.5t-163 -74t-163 -24q-135 0 -247.5 58.5 t-177 159t-64.5 218.5q0 128 68.5 235.5t181 168.5t239.5 61v-162q-130 0 -222.5 -84.5t-92.5 -210.5q0 -117 91 -192.5t222 -75.5q123 0 241 72.5t204 222.5l215 375h-203l55 102h205l317 551q-33 -14 -70.5 -22.5t-82 -11t-75.5 -3t-87 0.5t-80 1q-95 0 -171 -10.5 t-140 -34.5t-99.5 -67t-35.5 -103v-14z" />
<glyph unicode="G" horiz-adv-x="1359" d="M387 760l332 571q69 121 164.5 185.5t187.5 64.5q224 0 308 -142q73 -123 20 -304q-54 -184 -208 -333q-194 -186 -453 -226q-61 -9 -124 -9q-48 0 -120 11l-60 -105q-94 -163 -79.5 -262.5t124.5 -99.5q117 0 216.5 89t191.5 251l22 36h213l-270 -462 q123 53 240.5 150.5t253.5 254.5l14 16q22 -9 46 -30.5t34 -42.5q-332 -384 -672 -492l-164 -280q-44 -75 -107 -121.5t-124.5 -56t-115 4t-87 56t-33.5 102.5q0 223 467 365l55 96q-108 -67 -231 -67q-73 0 -128 22.5t-85.5 61.5t-44 91.5t-8 113t28 126t59.5 129.5l63 111 q-127 66 -197.5 180t-70.5 244q0 112 54.5 215t164.5 182l70 -125q-67 -53 -102 -123t-35 -145q0 -92 49.5 -173.5t140.5 -129.5zM571 709h43q239 0 418 157q128 113 176 258q43 132 -6 210q-40 63 -131 63q-47 0 -97 -39t-95 -117zM309 -375q0 -28 19.5 -40.5t48 0 t49.5 50.5l96 172q-213 -82 -213 -182z" />
<glyph unicode="H" horiz-adv-x="2271" d="M1733 0h-215l380 662h-319l-137 -240q-217 -376 -521 -511q-240 -106 -475 -40q-193 54 -312 202q-127 160 -113 357q10 128 81 250q40 69 91.5 120.5t97 76t85 39.5t62.5 18l23 2l39 -158l-16.5 -5.5t-41 -18t-58.5 -33.5t-62 -53.5t-58 -75.5q-93 -160 -35 -312 q47 -123 173 -191q153 -82 340 -38q243 58 439 312q53 70 101 153l432 750q-72 -37 -189 -71t-208 -56t-176 -65t-119 -101q-29 -50 -31.5 -94.5t14.5 -72.5t38.5 -48.5t40.5 -29.5l18 -9l-80 -137q-57 22 -105.5 63.5t-82.5 99.5t-31.5 138.5t51.5 165.5q41 71 110 121 t147 75t177 52t192 51t199 73.5t193 118.5l108 -186l-342 -590h320l303 522q60 103 130.5 168.5t136 87.5t128.5 19.5t112.5 -29t84 -65t45.5 -81.5l-141 -77q-23 52 -59.5 73.5t-79 12t-90.5 -54t-91 -119.5z" />
<glyph unicode="I" horiz-adv-x="1028" d="M424 719l-80 -137q-57 22 -105.5 63.5t-82.5 99.5t-31.5 138.5t51.5 165.5q41 71 110 121t147 75t177 52t192 51t199 73.5t193 118.5l109 -186l-1072 -1866h-219l1024 1778q-72 -37 -189 -71t-208 -56t-176 -65t-119 -101q-29 -50 -31.5 -94.5t14.5 -72.5t38.5 -48.5 t40.5 -29.5z" />
<glyph unicode="J" horiz-adv-x="1392" d="M602 334l98 -96q-43 -76 -125.5 -120t-175.5 -44q-159 0 -253.5 103t-94.5 251q0 93 37 174t80 133t143 114.5t156.5 91t190.5 90.5l102 48q28 13 134.5 63t148 70t132.5 67t144 80.5t122 82.5t124 98l121 -139l-803 -1376q123 53 241 150.5t254 254.5l15 16 q22 -9 46 -30.5t34 -42.5q-329 -384 -674 -492l-162 -280q-44 -75 -107 -121.5t-124.5 -56t-115 4t-87 56t-33.5 102.5q0 225 469 365l735 1280q-32 -25 -66.5 -48.5t-79 -48.5t-72.5 -41t-86 -43t-77.5 -36t-88 -40t-79.5 -36q-36 -16 -89 -39t-89.5 -38.5t-84.5 -37.5 t-81.5 -40t-72.5 -42t-65 -46.5t-52 -52t-41.5 -59.5t-25 -67t-9.5 -78q0 -96 54 -156.5t137 -60.5q53 0 105.5 29t90.5 84zM342 -375q0 -28 19.5 -40.5t48 0t49.5 50.5l98 172q-215 -82 -215 -182z" />
<glyph unicode="K" horiz-adv-x="2172" d="M2111 1077l87 150q51 89 110.5 150.5t116 89t113.5 35.5t105 -6t88 -38.5t66.5 -59t36.5 -71.5l-141 -78q-23 52 -59.5 73.5t-79 12.5t-90 -53.5t-90.5 -120.5l-88 -155q-42 -75 -77.5 -125t-88 -101t-120 -78.5t-151.5 -31.5q161 -164 -4 -453l-315 -547 q-17 -27 -23 -63t6 -72.5t46 -52.5l-91 -156q-64 32 -101.5 83.5t-46 110.5t4 121t45.5 119l316 547q148 257 -72 385l-156 -270q-217 -376 -521 -511q-240 -106 -475 -40q-193 54 -311 202q-127 160 -113 357q10 128 81 250q40 69 91.5 120.5t96.5 76t84.5 39.5t62.5 18 l23 2l39 -158l-16.5 -5.5t-41 -18t-58 -33.5t-61.5 -53.5t-58 -75.5q-93 -159 -35 -311q46 -124 172 -191q152 -82 338 -39q243 57 439 310q54 70 103 155l433 750q-72 -37 -189.5 -71t-208 -56t-176 -65t-119.5 -101q-29 -50 -31.5 -94.5t14.5 -72.5t38.5 -48.5t40.5 -29.5 l18 -9l-80 -137q-57 22 -105.5 63.5t-82.5 99.5t-31.5 138.5t51.5 165.5q41 71 110 121t147 75t177 52t192 51t199 73.5t193 118.5l109 -186l-318 -551q242 -54 432 274z" />
<glyph unicode="L" horiz-adv-x="1568" d="M709 1456l69 -125q-67 -53 -102 -123t-35 -145q0 -93 49 -174t141 -129l332 571q69 121 165 185.5t188 64.5q121 0 201.5 -87.5t80.5 -229.5q0 -135 -86 -287q-81 -141 -193.5 -235.5t-226.5 -134.5t-233 -40q-49 0 -121 11l-188 -328q-3 -6 -58 -88q13 -13 36.5 -39 t43.5 -47t39 -39q90 -91 142 -142t115.5 -106.5t107.5 -81.5t93 -43.5t97 -17.5q176 0 295 116l104 -110q-5 -7 -15 -19t-46 -42t-78.5 -52.5t-113.5 -41.5t-150 -19q-55 0 -111.5 15.5t-105 38.5t-104 62.5t-98 75.5t-97 90t-91 93t-91 97t-86.5 91q-160 -133 -338 -133 q-144 0 -222.5 79t-78.5 187t76.5 188t213.5 80q92 0 172 -38.5t160 -110.5q6 8 16.5 26t12.5 21l170 295q-128 65 -199.5 179t-71.5 245q0 112 55 215t165 182zM1323 1241l-307 -532h43q118 0 228.5 59t183.5 145.5t117 181.5t44 171q0 61 -29 96t-87 35q-47 0 -97.5 -39 t-95.5 -117zM219 72q131 0 232 90q-137 117 -242 117q-51 0 -82 -32t-31 -75q0 -42 32 -71t91 -29z" />
<glyph unicode="M" horiz-adv-x="1914" d="M1176 -59l733 1273q44 76 19 106q-28 33 -116 -22q-159 -102 -385 -419l-10 -13l-2 -2l-495 -864h-218l701 1214q44 77 18 107q-28 32 -117 -25q-157 -101 -380 -411l-508 -885h-219l729 1266q-72 -37 -189 -71t-207 -56t-175 -65t-119 -101q-29 -50 -31.5 -94.5 t14.5 -72.5t38.5 -48.5t39.5 -29.5l18 -9l-79 -137q-57 22 -105.5 63.5t-82.5 99.5t-31.5 138.5t51.5 165.5q36 62 91 106.5t121.5 72t142 48t160 42.5t166.5 47.5t171.5 70t164.5 104.5l109 -186l-57 -101q192 242 366 242q57 0 99 -33.5t51.5 -91t-25.5 -133.5 q202 258 381 258q61 0 103.5 -36t49 -98t-37.5 -144l-789 -1367q-17 -27 -23 -63t6 -72.5t46 -52.5l-90 -156q-64 32 -101.5 83.5t-46 111t4 121.5t45.5 119z" />
<glyph unicode="N" horiz-adv-x="2267" d="M1755 0h-215l154 1014l-197 -344q-266 -462 -590 -630q-248 -128 -476 -61q-180 52 -288 207q-117 167 -102 378q12 153 94 296q58 101 146 174.5t184 110.5t199.5 42t193 -23.5t162.5 -95.5t110 -165l-149 -78q-31 75 -93.5 120.5t-139 54t-156 -10.5t-152 -73.5 t-118.5 -133.5q-112 -193 -65 -367q38 -139 159 -212q141 -84 321 -39q234 57 436 312q69 87 130 194l462 805h213l-155 -1020l481 831q60 103 129 168.5t132 87.5t123.5 19.5t107.5 -29t80 -64.5t44 -82l-141 -77q-23 52 -59 73.5t-78.5 12t-90.5 -54t-91 -119.5z" />
<glyph unicode="O" horiz-adv-x="1159" d="M467 1024h104q-19 151 74 311q114 199 292 257q146 48 277 -14q115 -54 160 -167q60 -155 -43 -339q-1 -1 -2 -3l-164 -285q179 32 344 181l60 -117q-111 -102 -236.5 -152.5t-249.5 -52.5l-227 -397q-130 -225 -324 -319q-160 -78 -300 -40q-123 34 -171 141 q-66 147 41 360q12 23 25 46zM889 672q-195 62 -279 223l-336 -584q-83 -144 -31 -222q38 -57 127 -50q103 9 193 97q42 40 72 93zM811 1257q-63 -120 -58.5 -215.5t59 -160t146.5 -90.5l207 358q68 119 29 213q-29 69 -100 86q-91 21 -182 -59q-57 -50 -101 -132z" />
<glyph unicode="P" horiz-adv-x="1355" d="M244 0h-215l829 1434h213l-383 -666q51 -59 129.5 -84t162.5 -12.5t170 75.5t146 168q142 245 76 443q-47 140 -183 213q-142 76 -308 43q-189 -39 -314 -205q-24 -33 -45 -70q-34 -60 -58 -122.5t-31 -94.5l-7 -32l-145 22q2 18 6.5 48t30 111t63.5 148q138 239 373 318 q205 70 415 1q190 -63 302 -213q136 -182 96 -416q-22 -127 -97 -257q-69 -119 -160.5 -196t-184 -104t-185.5 -20.5t-172 44.5t-135 100z" />
<glyph unicode="Q" horiz-adv-x="1513" d="M539 549l-29 -141q-87 8 -153 45t-103.5 94t-56 130t-14 151t28 158t64.5 151q169 292 417 409q211 99 415 46q180 -46 284 -195q127 -182 85 -441q-29 -182 -142 -378q-90 -155 -219 -291t-280 -228q24 -22 79 -72.5t82 -74.5t77.5 -67.5t81.5 -65.5t77.5 -52t82 -44.5 t78 -25.5t81.5 -11q175 0 294 116l105 -110q-5 -7 -15 -19t-46.5 -42t-79 -52.5t-113.5 -41.5t-150 -19q-62 0 -124 15.5t-123.5 49t-112.5 66.5t-114 88t-103.5 92.5t-106 101t-98.5 93.5q-179 -76 -340 -76q-142 0 -221.5 64.5t-79.5 152.5t76.5 151.5t214.5 63.5 q149 0 352 -156q134 81 254.5 208.5t204.5 271.5q182 313 135 534q-31 147 -155 210q-125 64 -283 15q-179 -56 -309 -232q-27 -37 -50 -77q-60 -104 -88 -193.5t-25.5 -151t26.5 -108.5t59 -73.5t80 -38.5zM328 72q98 0 207 39q-125 86 -218 86q-52 0 -81 -18.5t-29 -43.5 q0 -27 31.5 -45t89.5 -18z" />
<glyph unicode="R" horiz-adv-x="1359" d="M244 0h-215l798 1382h213l-313 -542q124 -59 237.5 -42t205 90.5t147.5 188.5q63 137 33.5 241.5t-123 167t-215.5 62.5q-74 0 -138 -20.5t-106 -53.5t-75.5 -73t-52 -80t-30.5 -73t-16 -54l-4 -20l-180 28q2 11 6 30t22.5 74.5t44 105.5t74.5 111t108 105.5t150 74.5 t197 30q291 0 434 -171q113 -134 103 -328q-9 -187 -125 -338q-129 -169 -332 -213q-59 -12 -121 -13q159 -168 -6 -453l-316 -547q-17 -27 -23 -63t6 -72.5t46 -52.5l-90 -156q-84 42 -122 117.5t-29.5 157.5t52.5 159l316 547q83 147 49.5 250t-176.5 162l-16 6z" />
<glyph unicode="S" horiz-adv-x="1802" d="M20 109l64 79q133 -90 301 -55q-30 78 -35 163.5t12 166t59.5 154t103.5 128t149.5 87t191.5 32.5q166 0 281 -112l301 295q11 161 35 278t68.5 205t115 132t168.5 44q60 0 104 -23.5t63 -65.5t16.5 -94t-36.5 -115t-96 -122l-246 -242q-8 -133 -8 -354 q0 -188 -44.5 -351t-128.5 -287t-215.5 -195.5t-295.5 -71.5q-172 0 -298 62.5t-201 168.5q-117 -31 -230 -8t-199 101zM805 227q-90 -87 -184 -139q113 -133 327 -133q158 0 270.5 97t166 260.5t53.5 377.5v158l-209 -207q39 -77 45 -160.5t-26 -163.5t-101 -137l-88 90 q66 63 83 139t-12 138zM866 719q-81 0 -148 -32.5t-108.5 -86.5t-64 -121t-20.5 -140.5t28 -139.5q79 49 139 106l357 350q-80 64 -183 64zM1802 1544q-51 0 -86 -70t-57 -219l86 84q111 106 103 169q-6 35 -46 36z" />
<glyph unicode="T" horiz-adv-x="1337" d="M176 414l115 -111q-71 -71 -78 -146.5t47.5 -124t151.5 -48.5q202 0 376 303l607 1059q-151 -80 -330 -80q-28 0 -119 4t-115 4q-132 0 -219.5 -67.5t-87.5 -155.5q0 -109 103 -166l-105 -131q-84 44 -127 117.5t-43 158.5q0 178 147 293t378 115q22 0 105.5 -1t107.5 -1 q101 0 205 26t158 52l54 26l111 -186h-2l-639 -1108q-249 -430 -590 -430q-78 0 -146 27.5t-113.5 73t-69.5 107t-21.5 126.5t38 135t101.5 129z" />
<glyph unicode="U" horiz-adv-x="1585" d="M1571 430l14 16q22 -9 46 -30.5t34 -42.5q-337 -393 -555 -393q-84 0 -133.5 41.5t-52.5 109.5q-83 -71 -169 -108.5t-155.5 -38t-118.5 35.5t-67 100t7 167.5t97 228.5l455 791q-60 -30 -150.5 -61.5t-167 -54t-159 -55.5t-140 -67t-94.5 -85.5t-37 -115.5 q0 -29 11.5 -55t28.5 -42.5t33.5 -28.5t27.5 -18l12 -5l-80 -137q-89 35 -154 111.5t-65 178.5q0 90 37.5 159.5t105 117t151 84t186.5 69t200 63.5t203.5 76.5t185.5 98.5l109 -186l-539 -932q-98 -169 -59 -246q28 -56 112 -36q104 24 214 145q46 49 85 110l623 1080h213 l-717 -1248q-33 -63 -23.5 -89.5t48.5 -26.5q121 0 397 319z" />
<glyph unicode="V" horiz-adv-x="1431" d="M778 0h-190l379 1325q-59 -34 -149.5 -67.5t-171 -57t-166 -56.5t-147 -67.5t-101 -88.5t-39.5 -120q0 -71 40 -115.5t96 -53t119.5 20t106.5 91.5l98 -96q-43 -76 -125.5 -120t-175.5 -44q-144 0 -235 100q-87 94 -81 225q6 155 143 275q116 100 306 152 q376 103 576 237l121 -139l-267 -924l555 809q69 97 143.5 160t139.5 85t126 21t107 -25t78 -60.5t43 -80.5l-141 -77q-46 104 -131 80.5t-188 -168.5z" />
<glyph unicode="W" horiz-adv-x="1916" d="M2095 1221l-524 -918q-51 -88 -114 -155.5t-126.5 -105t-128.5 -57.5t-122.5 -15.5t-104.5 23.5t-78.5 57.5t-40.5 88.5q-146 -157 -289 -167q-105 -7 -162 69q-61 82 -26 210q15 52 45 105l545 951q-69 -34 -181 -71.5t-202.5 -67t-178 -69.5t-137 -98t-49.5 -133 q0 -29 11.5 -55t28.5 -42.5t33.5 -28.5t27.5 -18l12 -5l-80 -137q-89 35 -154 111.5t-65 178.5q0 90 37.5 159.5t105 117t151 84t186.5 69t200 63.5t203.5 76.5t185.5 98.5l108 -186l-606 -1051q-66 -114 -47 -179q16 -51 74 -35q91 25 211 187q33 43 65 95l637 1104h213 l-717 -1248q-45 -80 -10 -122q31 -37 102 -13q101 35 192 170l28 45l565 979q60 103 130.5 168.5t136 87.5t128.5 19.5t112.5 -29t84 -65t45.5 -81.5l-141 -77q-23 52 -59.5 73.5t-79 12t-90.5 -54t-91 -119.5z" />
<glyph unicode="X" horiz-adv-x="1572" d="M621 256l374 424l70 637q-60 -27 -154.5 -59.5t-172 -56.5t-162.5 -59.5t-143 -71.5t-96 -88.5t-38 -113.5q0 -57 26 -98t68 -57t89.5 -13.5t96.5 32t83 79.5l98 -96q-43 -76 -125.5 -120t-175.5 -44q-144 0 -235 100q-87 94 -81 225q6 155 143 275q116 100 306 152 q374 103 575 237l121 -139l-49 -414l-16 -67l39 59l307 342q57 64 118.5 106.5t118 59.5t111 18.5t99.5 -15.5t81 -45t58.5 -67t29.5 -84l-153 -47q-12 55 -44.5 83t-77 27.5t-101.5 -34.5t-115 -98l-494 -551l-49 -422q-14 -115 56 -111q77 5 215 137q74 70 137 152l14 16 q22 -9 46 -30.5t34 -42.5q-109 -154 -269 -271q-180 -132 -300 -123q-136 10 -138 210q0 43 6 94l11 94l10 49l-29 -43l-199 -223q-78 -89 -165 -136t-161 -49.5t-137.5 22.5t-103.5 75.5t-49 113.5l154 47q16 -73 66 -99t122.5 5t149.5 117z" />
<glyph unicode="Y" horiz-adv-x="1519" d="M1049 446l2 -2l587 1029h213l-841 -1448q123 53 241 150.5t254 254.5l15 16q22 -9 45.5 -30.5t33.5 -42.5q-329 -384 -673 -492l-162 -280q-44 -75 -107 -121.5t-124.5 -56t-115 4t-87 56t-33.5 102.5q0 225 469 365l72 123q-78 -52 -153.5 -73.5t-135.5 -13t-100 48.5 t-52 104t15 162t94 214l455 791q-60 -30 -150.5 -61.5t-167 -54t-159 -55.5t-140 -67t-94.5 -85.5t-37 -115.5q0 -29 11.5 -55t28.5 -42.5t33.5 -28.5t27.5 -18l12 -5l-80 -137q-89 35 -154 111.5t-65 178.5q0 90 37.5 159.5t105 117t151 84t186.5 69t200 63.5t203.5 76.5 t185.5 98.5l108 -186l-538 -932q-97 -168 -58 -245q28 -57 111 -38q104 24 213 144q65 71 117 163zM469 -375q0 -28 19.5 -40.5t48 0t49.5 50.5l98 172q-215 -82 -215 -182z" />
<glyph unicode="Z" horiz-adv-x="1269" d="M397 68l2 2l-14 127q147 26 297.5 125t264 230.5t185.5 287t72 290.5q0 141 -90 204q-86 59 -206 17q-143 -50 -253 -219q-165 -253 -184 -671l-152 -15q-31 436 160 738q129 205 325 297q179 85 339 44q154 -40 222 -182q44 -92 44 -215q0 -106 -33.5 -222.5 t-100.5 -234.5t-159.5 -222.5t-219 -191.5t-269.5 -136l-9 -2q57 -48 66 -121q146 44 279.5 147t291.5 285l15 16q22 -9 46 -30.5t34 -42.5q-336 -388 -678 -494q-9 -29 -37 -84l-113 -196q-44 -76 -107.5 -122.5t-126 -55.5t-117.5 5t-89.5 57t-34.5 103q0 225 473 367 q25 51 -15.5 85.5t-101.5 29.5h-4h-2zM219 -375q0 -28 19 -40.5t47.5 0t50.5 50.5l100 172q-217 -82 -217 -182z" />
<glyph unicode="[" horiz-adv-x="1075" d="M-231 -373l1282 2220h462l-96 -168h-250l-1087 -1884h248l-97 -168h-462z" />
<glyph unicode="\" horiz-adv-x="745" d="M90 1432h154l391 -1432h-152z" />
<glyph unicode="]" horiz-adv-x="1075" d="M1513 1847l-1282 -2220h-462l96 168h250l1087 1884h-248l97 168h462z" />
<glyph unicode="_" horiz-adv-x="815" d="M-82 -256l82 143h815l-82 -143h-815z" />
<glyph unicode="a" d="M991 430l15 16q22 -9 45.5 -30.5t33.5 -42.5q-337 -393 -555 -393q-80 0 -128 38t-56 101q-169 -139 -295 -139q-84 0 -134 43.5t-51.5 111t40.5 148.5l299 516q65 112 169 178.5t195 66.5q98 0 164.5 -71t59.5 -144h120l-344 -602q-33 -63 -23.5 -89.5t48.5 -26.5 q121 0 397 319zM387 745l-297 -518q-33 -63 -23.5 -89.5t48.5 -26.5q69 0 160 76t184 223l166 290q50 93 9 143q-34 41 -101 25q-82 -21 -140 -113z" />
<glyph unicode="b" horiz-adv-x="927" d="M811 1475l-270 -469q70 47 139 47q88 0 140 -54t52 -137q0 -104 -79 -244l-201 -346q82 2 167 42t154 116l15 16q22 -9 46 -30.5t34 -42.5q-78 -92 -206.5 -149.5t-230.5 -57.5q-31 0 -47 2q-76 -99 -172 -149t-190 -50q-106 0 -176 61t-70 167q0 108 76 237l602 1041 h217zM322 518q0 -125 90 -192l217 372q41 69 41 127q0 42 -22 67.5t-58 25.5q-58 0 -122 -68t-105 -162.5t-41 -169.5zM188 119q43 0 87 26t75 76q-108 68 -135 221l-76 -131q-37 -67 -37 -110q0 -38 24.5 -60t61.5 -22z" />
<glyph unicode="c" horiz-adv-x="792" d="M387 745l-219 -380q-49 -86 -44 -142.5t46 -84t109 -27.5q108 0 243 89.5t256 229.5l15 16q22 -9 45.5 -30.5t33.5 -42.5q-148 -172 -318 -282.5t-339 -110.5q-93 0 -161 36.5t-100 96t-26.5 140t54.5 163.5l223 383q68 118 169.5 181.5t229.5 63.5q88 0 147 -45.5 t68.5 -122t-45.5 -176.5l-31 -53h-174l31 53q62 109 26 160q-27 40 -90 20q-79 -25 -141 -122q-4 -6 -8 -13z" />
<glyph unicode="d" d="M991 430l15 16q22 -9 45.5 -30.5t33.5 -42.5q-337 -393 -555 -393q-80 0 -128 38t-56 101q-169 -139 -295 -139q-84 0 -134 43.5t-51.5 111t40.5 148.5l299 516q65 112 169 178.5t195 66.5q63 0 114 -31t81 -79l313 541h213l-721 -1248q-33 -63 -23.5 -89.5t48.5 -26.5 q121 0 397 319zM387 745l-297 -518q-33 -63 -23.5 -89.5t48.5 -26.5q71 0 164 79.5t186 231.5l162 278h-2q50 93 9 143q-34 41 -101 25q-82 -21 -140 -113z" />
<glyph unicode="e" horiz-adv-x="792" d="M743 647q-57 -98 -134 -162t-153 -86.5t-144.5 -21.5t-123.5 24l-20 -36q-49 -86 -44 -142.5t46 -84t109 -27.5q108 0 243 89.5t256 229.5l15 16q22 -9 45.5 -30.5t33.5 -42.5q-148 -172 -318 -282.5t-339 -110.5q-93 0 -161 36.5t-100 96t-26.5 140t54.5 163.5l223 383 q68 118 169.5 181.5t229.5 63.5q88 0 147 -45.5t68.5 -122t-45.5 -176.5zM387 745l-137 -239q34 -12 70.5 -14t80 8t88 47.5t80.5 99.5l31 53q62 109 26 160q-27 40 -90 20q-79 -25 -141 -122q-4 -6 -8 -13z" />
<glyph unicode="f" horiz-adv-x="761" d="M748 430l14 16q22 -9 46 -30.5t34 -42.5q-284 -329 -733 -355q36 -107 -25 -215l-160 -280q-98 -172 -222 -208q-92 -26 -156.5 32t-55.5 158q5 64 43 130l881 1530q113 196 265 271q119 59 208 20q81 -35 89 -134q9 -103 -69 -237l-342 -591q-133 -227 -430 -383 q359 25 613 319zM610 1155l-577 -991q80 35 158.5 105t136 145.5t108.5 163.5l332 575q55 101 27 137q-22 27 -75 -7q-58 -38 -110 -128zM-43 -145q65 121 8 159h-18l-242 -413q-52 -89 -32 -125q14 -25 50 -1q29 20 56 66z" />
<glyph unicode="g" horiz-adv-x="950" d="M-272 -414q0 222 467 365l59 100q-114 -71 -203 -71q-84 0 -134 43.5t-51.5 111t40.5 148.5l299 516q65 112 169 178.5t195 66.5q94 0 159 -66t65 -138h125l-478 -815q123 53 242 151t254 254l14 16q22 -9 46 -30.5t34 -42.5q-329 -384 -674 -492l-161 -280 q-44 -75 -107 -121.5t-124.5 -56t-115 4t-87 56t-33.5 102.5zM387 745l-297 -518q-33 -63 -23.5 -89.5t48.5 -26.5q70 0 162.5 78.5t185.5 228.5l162 282q50 93 9 143q-34 41 -101 25q-82 -21 -140 -113zM-100 -375q0 -28 19.5 -40.5t47.5 0t49 50.5l97 172 q-213 -83 -213 -182z" />
<glyph unicode="h" d="M991 430l15 16q22 -9 45.5 -30.5t33.5 -42.5q-337 -393 -555 -393q-84 0 -134 43.5t-51.5 111t40.5 148.5l277 481q44 76 19 106q-28 33 -116 -24q-120 -77 -284 -283l-324 -563h-215l850 1475h213l-340 -592q154 161 297 161q61 0 103.5 -36t49 -98t-37.5 -144 l-308 -539q-33 -63 -23.5 -89.5t48.5 -26.5q121 0 397 319z" />
<glyph unicode="i" horiz-adv-x="526" d="M451 1255q0 53 35 89t87 36q53 0 89 -36t36 -89q0 -52 -36 -87t-89 -35t-87.5 34.5t-34.5 87.5zM512 430l14 16q22 -9 46 -30.5t34 -42.5q-337 -393 -555 -393q-84 0 -134 43.5t-51.5 111t40.5 148.5l428 741h213l-457 -797q-33 -63 -23.5 -89.5t48.5 -26.5 q121 0 397 319z" />
<glyph unicode="j" horiz-adv-x="575" d="M0 446q67 78 139.5 171.5t116.5 153t106 147t76 106.5h213l-583 -999q122 52 239 149.5t254 255.5l14 16q22 -9 46 -30.5t34 -42.5q-332 -385 -671 -492l-164 -280q-44 -75 -107 -121.5t-124.5 -56t-115 4t-87 56t-33.5 102.5q0 226 471 365l244 428q-48 35 -68 67z M504 1255q0 53 35.5 89t87.5 36q53 0 89 -36t36 -89q0 -52 -36 -87t-89 -35t-88 35t-35 87zM-475 -375q0 -28 19.5 -40.5t48 0t49.5 50.5l98 172q-215 -83 -215 -182z" />
<glyph unicode="k" horiz-adv-x="882" d="M-43 0h-215l850 1475h213l-303 -527q45 41 97.5 66.5t100 29.5t91 -5.5t71 -39.5t39.5 -71t-2 -102.5t-55 -131.5l-58 -98q-75 -131 -185 -199t-222 -55v-88q0 -68 27 -105.5t65 -37.5q121 0 397 319l15 16q22 -9 46 -30.5t34 -42.5q-337 -393 -555 -393q-123 0 -165 64 t-42 210v170zM565 590l103 176q34 59 8 95q-29 39 -99 13q-114 -42 -247 -227l-62 -106q22 -65 82.5 -73t121.5 29t93 93z" />
<glyph unicode="l" horiz-adv-x="526" d="M512 430l14 16q22 -9 46 -30.5t34 -42.5q-337 -393 -555 -393q-84 0 -134 43.5t-51.5 111t40.5 148.5l688 1192h213l-717 -1248q-33 -63 -23.5 -89.5t48.5 -26.5q121 0 397 319z" />
<glyph unicode="m" horiz-adv-x="1536" d="M1522 430l14 16q22 -9 46 -30.5t34 -42.5q-337 -393 -555 -393q-128 0 -171 92t25 211l277 481q44 76 19 106q-28 33 -116 -23q-160 -102 -387 -421l-6 -8l-239 -418h-217l440 764q44 76 18 106q-28 33 -117 -24q-158 -103 -382 -416l-248 -430h-215l592 1024h213 l-127 -221q191 241 366 241q57 0 99 -33.5t51.5 -91t-25.5 -133.5q202 258 381 258q61 0 103.5 -36t49 -98t-37.5 -144l-307 -539q-33 -63 -24 -89.5t48 -26.5q122 0 398 319z" />
<glyph unicode="n" d="M991 430l15 16q22 -9 45.5 -30.5t33.5 -42.5q-337 -393 -555 -393q-84 0 -134 43.5t-51.5 111t40.5 148.5l277 481q44 76 19 106q-27 33 -114 -22q-120 -75 -284 -281l-326 -567h-215l592 1024h213l-80 -139q152 159 295 159q61 0 103.5 -36t49 -98t-37.5 -144l-308 -539 q-33 -63 -23.5 -89.5t48.5 -26.5q121 0 397 319z" />
<glyph unicode="o" horiz-adv-x="927" d="M571 166h-47q-117 -147 -276 -185q-135 -33 -232 28q-99 61 -99 188q-1 107 75 237l92 158l104 182q89 154 187 216.5t227 62.5q74 0 132 -37t87.5 -96.5t24 -140t-52.5 -161.5l-201 -346q82 2 166.5 42t154.5 116l15 16q22 -9 46 -30.5t34 -42.5q-78 -92 -206.5 -149.5 t-230.5 -57.5zM338 305q0 53 36.5 90t88.5 37h10l156 266q62 106 32 173q-23 50 -81 44q-77 -8 -150 -108q-14 -19 -27 -41l-102 -174l-162 -281q-63 -110 -18 -163q33 -40 101 -25q79 19 128 97q3 4 6 9l2 4q-20 33 -20 72z" />
<glyph unicode="p" horiz-adv-x="923" d="M-301 -451h-215l850 1475h213l-43 -74q53 47 114 71.5t115 24.5t96.5 -24.5t63.5 -67t10 -111t-59 -149.5l-236 -403q-11 -18 -40 -74t-48 -86q94 33 195.5 112t193.5 187l15 16q24 -6 47.5 -27.5t32.5 -45.5q-58 -67 -109 -119t-118.5 -105t-134.5 -87.5t-151 -57 t-174 -24.5h-12q-55 0 -99 17.5t-68 43t-40 51t-21 42.5l-5 18l121 57q31 -57 78 -53t75 53l322 557q25 44 -1 78q-30 40 -98 18q-107 -33 -233 -205z" />
<glyph unicode="q" horiz-adv-x="882" d="M911 840l-413 -709q212 117 370 299l15 16q22 -9 46 -30.5t34 -42.5q-229 -264 -557 -398l-3 -4q11 0 15 -2q61 -26 82.5 -117.5t-31.5 -195.5l-76 -133q-98 -171 -219 -207q-91 -27 -154 30q-64 58 -54 159q6 64 44 130l287 502q-176 -157 -299 -157q-70 0 -108 40.5 t-32.5 115t58.5 165.5l289 498q65 112 169 178.5t195 66.5q94 0 159 -66t65 -138h118zM104 152q30 -12 115.5 42t200.5 160l223 389q25 79 -25 113q-46 31 -114 1q-70 -31 -117 -112l-256 -446q-43 -72 -48 -99q-6 -36 21 -48zM248 -459l94 166q34 62 35 105.5t-31 60.5 l-158 -272q-52 -89 -37 -125q10 -25 43 -1q27 21 54 66z" />
<glyph unicode="r" horiz-adv-x="868" d="M248 283l225 391q35 60 -12 121l-29 34q-236 -321 -352 -456q-55 35 -80 73q133 157 360 478l-18 24q-59 72 -46.5 160t101.5 168l111 -121q-62 -60 -12 -123l118 -143q29 -35 45 -63.5t24 -63.5t-1.5 -75t-36.5 -87l-213 -373q-33 -63 -23.5 -89.5t48.5 -26.5 q121 0 397 319l14 16q22 -9 46 -30.5t34 -42.5q-337 -393 -555 -393q-84 0 -134 43.5t-51.5 111t40.5 148.5z" />
<glyph unicode="s" horiz-adv-x="718" d="M141 -20q-55 0 -99 17.5t-68 43t-40 51t-21 42.5l-5 18l133 69q1 -3 3.5 -8.5t11 -19t19 -23.5t28.5 -18.5t38 -8.5q57 0 94 41.5t55 114t29 148.5t26.5 167t37.5 148q-9 -11 -76.5 -102.5t-120 -157.5t-106.5 -129q-55 35 -80 73q67 78 146 179.5t127 167.5t119 165 t81 113l160 -86q-57 -118 -87.5 -268t-50.5 -295.5t-46 -222.5q142 96 256 231l14 16q24 -6 47.5 -27.5t32.5 -45.5q-132 -154 -286 -260.5t-306 -126.5q-1 0 -3 -1t-3 -1q-40 -4 -60 -4z" />
<glyph unicode="t" horiz-adv-x="526" d="M139 1024l62 102h192l201 349h213l-201 -349h176l-61 -102h-174l-457 -797q-33 -63 -23.5 -89.5t48.5 -26.5q121 0 397 319l14 16q22 -9 46 -30.5t34 -42.5q-337 -393 -555 -393q-84 0 -134 43.5t-51.5 111t40.5 148.5l428 741h-195z" />
<glyph unicode="u" d="M991 430l15 16q22 -9 45.5 -30.5t33.5 -42.5q-337 -393 -555 -393q-99 0 -148 58t-34 146q-212 -204 -350 -204q-70 0 -108 40.5t-32.5 115t58.5 165.5l418 723h213l-416 -725q-43 -72 -48 -99q-6 -36 21 -48q31 -13 118.5 43t209.5 167l379 662h213l-455 -797 q-33 -63 -23.5 -89.5t48.5 -26.5q121 0 397 319z" />
<glyph unicode="v" horiz-adv-x="763" d="M231 1024h215l-284 -711q-60 -150 -49 -153q7 -2 43 48q24 33 67 99l477 717h193l-346 -516q-63 -128 -10 -163q41 -26 120 14q52 26 93 71l14 16q22 -9 46 -30.5t34 -42.5q-63 -74 -133 -113t-127.5 -40.5t-102.5 22t-67 67.5l-111 -166q-48 -72 -116 -115t-127 -45 t-106 27t-52.5 100.5t32.5 174.5z" />
<glyph unicode="w" horiz-adv-x="1355" d="M766 305q0 53 36.5 90t88.5 37q27 0 51 -12q171 255 295 604h137q-165 -490 -360 -752q84 0 169.5 40t157.5 118l15 16q22 -9 46 -30.5t34 -42.5q-78 -92 -206.5 -149.5t-230.5 -57.5q-50 0 -75 4q-184 -190 -394 -190q-80 0 -128.5 37.5t-57.5 99.5q-167 -137 -293 -137 q-128 0 -171.5 92t26.5 211l430 741h211l-457 -797q-33 -63 -23.5 -89.5t48.5 -26.5q70 0 162.5 79t187.5 230l350 604h211l-457 -797q-33 -63 -23.5 -89.5t48.5 -26.5q79 0 194 118q-22 31 -22 76z" />
<glyph unicode="x" horiz-adv-x="983" d="M969 430l14 16q22 -9 46 -30.5t34 -42.5q-78 -91 -134.5 -150.5t-126 -120.5t-133.5 -91.5t-124 -30.5q-122 0 -162.5 79t-20.5 224v8l-268 -289h-143l440 487l47 338q-4 -6 -68.5 -90.5t-99 -129t-92 -116t-98.5 -118.5q-55 35 -80 73q147 174 346 439q102 159 197 159 q70 0 91 -57t1 -184l-21 -129l306 350h157l-495 -567l-35 -230q-16 -107 49 -107q80 0 236 156q66 66 137 154z" />
<glyph unicode="y" horiz-adv-x="950" d="M104 152q31 -14 120 44.5t212 172.5l377 655h213l-584 -999q123 53 240.5 150.5t253.5 254.5l14 16q22 -9 46 -30.5t34 -42.5q-332 -384 -672 -492l-163 -280q-44 -75 -107 -121.5t-124.5 -56t-115 4t-87 56t-33.5 102.5q0 225 469 365l116 201q-192 -172 -315 -172 q-70 0 -108 40.5t-32.5 115t58.5 165.5l418 723h213l-416 -725q-43 -72 -48 -99q-6 -36 21 -48zM-100 -375q0 -28 19.5 -40.5t47.5 0t49 50.5l99 172q-215 -83 -215 -182z" />
<glyph unicode="z" horiz-adv-x="950" d="M78 68l2 2l-14 127q63 21 129.5 56.5t127 78t117 93t102 100.5t79.5 101t51.5 95t16 81t-24.5 60q-87 87 -406 -278q-42 -49 -116 -138q-45 -54 -62 -73q-55 35 -80 73q32 38 84 103t92.5 114.5t94 111t103 106t105 83.5t114 59.5t116.5 20.5q134 0 171 -111 q38 -114 -38 -288q-86 -197 -270 -354q-121 -105 -265 -170l-8 -2q57 -48 66 -121q146 44 279.5 147t291.5 285l14 16q22 -9 46 -30.5t34 -42.5q-336 -388 -678 -494q-9 -29 -37 -84l-112 -196q-44 -76 -107.5 -122.5t-126 -55.5t-117.5 5t-89.5 57t-34.5 103q0 224 473 367 q25 51 -15.5 85.5t-101.5 29.5h-4h-2zM-100 -375q0 -28 19 -40.5t47 0t50 50.5l101 172q-217 -82 -217 -182z" />
<glyph unicode="{" horiz-adv-x="966" d="M578 1032l340 578q68 118 177 177.5t222 59.5h196l-96 -168h-94q-87 0 -139 -32t-105 -123l-299 -508q-24 -41 -55.5 -74.5t-59 -52.5t-53.5 -31.5t-40.5 -17t-18.5 -4.5q5 -4 11 -10t14 -24.5t10 -40t-7.5 -57.5t-33.5 -77l-397 -705q-41 -75 -13 -129.5t103 -54.5h59 l-96 -168h-29q-54 0 -102 24.5t-79.5 66.5t-48 92.5t-10.5 108.5t35 109l375 668q24 41 32 76t4.5 55.5t-13.5 37t-16.5 21.5t-10.5 7q12 3 33 13t59 32t78 62t68 89z" />
<glyph unicode="|" horiz-adv-x="516" d="M-131 0l827 1434h189l-828 -1434h-188z" />
<glyph unicode="}" horiz-adv-x="1044" d="M578 385l-340 -578q-68 -118 -177.5 -177.5t-222.5 -59.5h-196l96 168h94q86 0 138.5 32.5t105.5 123.5l321 552q24 41 56 75t59.5 52.5t53.5 31.5t40.5 17.5t18.5 4.5q-5 4 -11 10t-14 24.5t-10 40t7.5 57.5t33.5 77l375 659q41 75 12.5 129.5t-103.5 54.5h-59l96 168 h29q54 0 102 -24.5t79.5 -66.5t48 -92.5t10.5 -108.5t-35 -109l-375 -668q-24 -41 -32 -76t-4.5 -55.5t13.5 -36.5t16.5 -21t10.5 -7q-11 -3 -32.5 -13t-59 -32t-77.5 -62.5t-68 -89.5z" />
<glyph unicode="&#xad;" horiz-adv-x="1062" d="M133 467l82 143h733l-82 -143h-733z" />
<glyph unicode="&#x2000;" horiz-adv-x="923" />
<glyph unicode="&#x2001;" horiz-adv-x="1847" />
<glyph unicode="&#x2002;" horiz-adv-x="923" />
<glyph unicode="&#x2003;" horiz-adv-x="1847" />
<glyph unicode="&#x2004;" horiz-adv-x="615" />
<glyph unicode="&#x2005;" horiz-adv-x="461" />
<glyph unicode="&#x2006;" horiz-adv-x="307" />
<glyph unicode="&#x2007;" horiz-adv-x="307" />
<glyph unicode="&#x2008;" horiz-adv-x="230" />
<glyph unicode="&#x2009;" horiz-adv-x="369" />
<glyph unicode="&#x200a;" horiz-adv-x="102" />
<glyph unicode="&#x2010;" horiz-adv-x="1062" d="M133 467l82 143h733l-82 -143h-733z" />
<glyph unicode="&#x2011;" horiz-adv-x="1062" d="M133 467l82 143h733l-82 -143h-733z" />
<glyph unicode="&#x2012;" horiz-adv-x="1062" d="M133 467l82 143h733l-82 -143h-733z" />
<glyph unicode="&#x2013;" horiz-adv-x="1259" d="M133 467l82 143h938l-82 -143h-938z" />
<glyph unicode="&#x2014;" horiz-adv-x="1679" d="M133 467l82 143h1348l-82 -143h-1348z" />
<glyph unicode="&#x2018;" horiz-adv-x="393" d="M311 1475l-4 -82h-12q-37 0 -76.5 -20.5t-58.5 -49.5q46 -8 74 -35.5t28 -66.5q0 -54 -32.5 -83.5t-75.5 -29.5q-48 0 -84.5 31t-36.5 84q0 105 84.5 178.5t179.5 73.5h14z" />
<glyph unicode="&#x2019;" horiz-adv-x="417" d="M205 1096l4 82h12q37 0 76.5 20t58.5 49q-46 8 -74 35.5t-28 67.5q0 54 32.5 83t75.5 29q48 0 84.5 -31t36.5 -83q0 -105 -84.5 -178.5t-179.5 -73.5h-14z" />
<glyph unicode="&#x201c;" horiz-adv-x="464" d="M629 1475l-4 -82h-13q-37 0 -76.5 -20.5t-58.5 -49.5q46 -8 74.5 -35.5t28.5 -66.5q0 -54 -33 -83.5t-76 -29.5q-48 0 -84.5 31t-36.5 84q0 105 84.5 178.5t179.5 73.5h15zM322 1475l-5 -82h-12q-37 0 -76.5 -20.5t-58.5 -49.5q46 -8 74 -35.5t28 -66.5 q0 -54 -32.5 -83.5t-75.5 -29.5q-48 0 -84.5 31t-36.5 84q0 105 84.5 178.5t179.5 73.5h15z" />
<glyph unicode="&#x201d;" horiz-adv-x="724" d="M205 1108l4 82h12q37 0 76.5 20.5t58.5 49.5q-46 8 -74 35.5t-28 66.5q0 54 32.5 83.5t75.5 29.5q48 0 84.5 -31t36.5 -84q0 -105 -84.5 -178.5t-179.5 -73.5h-14zM512 1108l4 82h12q37 0 77 20.5t59 49.5q-46 8 -74.5 35.5t-28.5 66.5q0 54 33 83.5t76 29.5 q48 0 84.5 -31t36.5 -84q0 -70 -41.5 -129.5t-102 -91t-121.5 -31.5h-14z" />
<glyph unicode="&#x2022;" horiz-adv-x="649" d="M137 506q0 78 55.5 133t133.5 55t133 -55t55 -133t-55 -133.5t-133 -55.5t-133.5 55.5t-55.5 133.5z" />
<glyph unicode="&#x202f;" horiz-adv-x="369" />
<glyph unicode="&#x205f;" horiz-adv-x="461" />
<glyph unicode="&#xe000;" horiz-adv-x="1044" d="M0 1044h1044v-1044h-1044v1044z" />
</font>
</defs>
</svg>
