<?xml version="1.0" standalone="no"?>
<!DOCTYPE svg PUBLIC "-//W3C//DTD SVG 1.1//EN" "http://www.w3.org/Graphics/SVG/1.1/DTD/svg11.dtd" >
<svg xmlns="http://www.w3.org/2000/svg">
<metadata>
This is a custom SVG webfont generated by Font Squirrel.
Copyright   : Copyright c Marc Clancy Designed  Created by Marc Clancy 2003 All rights reserved
Foundry     : Marc Clancy Designed  Created by Marc Clancy
</metadata>
<defs>
<font id="PowdahRegular" horiz-adv-x="1118" >
<font-face units-per-em="2048" ascent="1638" descent="-410" />
<missing-glyph horiz-adv-x="509" />
<glyph unicode=" "  horiz-adv-x="509" />
<glyph unicode="&#x09;" horiz-adv-x="509" />
<glyph unicode="&#xa0;" horiz-adv-x="509" />
<glyph unicode="!" horiz-adv-x="647" d="M291 0h129v127h-129v-127zM291 256v1153h129v-1153h-129z" />
<glyph unicode="&#x22;" horiz-adv-x="696" d="M180 1458v258h127v-258h-127zM385 1458v258h129v-258h-129z" />
<glyph unicode="#" horiz-adv-x="1271" d="M162 475v127h213v260h-213v125h213v473h129v-473h262v473h127v-473h215v-125h-215v-260h215v-127h-215v-475h-127v475h-262v-475h-129v475h-213zM504 602h262v260h-262v-260z" />
<glyph unicode="$" horiz-adv-x="1071" d="M80 389l106 72q35 -53 113 -100.5t197 -47.5q113 0 199.5 48.5t86.5 144.5q0 143 -182 158l-164 14q-154 14 -233.5 92t-79.5 203q0 121 86 200.5t225 98.5v188h127v-188q193 -23 285 -156l-107 -76q-70 104 -245 105q-123 0 -181.5 -50.5t-58.5 -121.5q0 -143 192 -164 l158 -16q311 -25 311 -287q0 -129 -92 -212t-250 -99h-12v-195h-127v190q-237 23 -354 199z" />
<glyph unicode="%" horiz-adv-x="1546" d="M133 1055v116q0 117 81 199t197.5 82t198.5 -83t82 -198v-116q0 -119 -82 -200t-198.5 -81t-197.5 81t-81 200zM236 1061q0 -74 51 -126t124.5 -52t127 52t53.5 126v106q0 72 -53.5 124t-127 52t-124.5 -51t-51 -125v-106zM285 0l850 1458h133l-852 -1458h-131zM858 279 v118q0 115 83 198t198 83q117 0 198.5 -83t81.5 -198v-118q0 -117 -82 -200t-198 -83q-115 0 -198 83t-83 200zM963 283q0 -72 52 -125.5t124 -53.5q74 0 126 53.5t52 125.5v106q0 76 -52.5 127t-126 51t-124.5 -52t-51 -126v-106z" />
<glyph unicode="&#x26;" horiz-adv-x="1359" d="M156 430q0 121 62.5 221.5t168.5 161.5q-80 49 -128 127t-48 166q0 152 122 258t292 106t289.5 -106.5t119.5 -257.5h-131q0 96 -81 165.5t-197.5 69.5t-199.5 -69.5t-83 -165.5q0 -82 61.5 -145.5t155.5 -81.5h344v-144h-344q-119 -20 -196.5 -106t-77.5 -199 q0 -131 99 -221t241 -90q139 0 238.5 90t99.5 221v178h256v-131h-125v-47q0 -180 -138.5 -311t-330.5 -131q-195 0 -332 130t-137 312z" />
<glyph unicode="'" horiz-adv-x="487" d="M178 1458v258h127v-258h-127z" />
<glyph unicode="(" horiz-adv-x="796" d="M145 743q0 350 123 623.5t320 374.5l63 -115q-162 -80 -266 -327.5t-104 -555.5q0 -311 104 -560t266 -328l-63 -113q-197 102 -320 374.5t-123 626.5z" />
<glyph unicode=")" horiz-adv-x="765" d="M121 -147q162 80 268.5 328.5t106.5 559.5q0 305 -106.5 554t-268.5 329l67 115q193 -100 316 -373.5t123 -624.5q0 -354 -122 -626.5t-317 -374.5z" />
<glyph unicode="*" horiz-adv-x="964" d="M139 967l238 135l-238 141l49 88l238 -137v274h109v-274l237 137l49 -88l-235 -141l235 -135l-49 -88l-237 133v-273h-109v273l-238 -133z" />
<glyph unicode="+" horiz-adv-x="1056" d="M106 700v127h355v353h127v-353h352v-127h-352v-350h-127v350h-355z" />
<glyph unicode="," horiz-adv-x="489" d="M180 -131v262h127v-131z" />
<glyph unicode="-" horiz-adv-x="813" d="M156 483v127h506v-127h-506z" />
<glyph unicode="." horiz-adv-x="493" d="M180 0v131h127v-131h-127z" />
<glyph unicode="/" horiz-adv-x="776" d="M-2 -256l643 1966h137l-628 -1966h-152z" />
<glyph unicode="0" horiz-adv-x="1196" d="M135 455v546q0 190 136.5 327.5t329 137.5t328.5 -137t136 -328v-546q0 -193 -136 -330t-328.5 -137t-329 136t-136.5 331zM264 455q0 -139 98.5 -238.5t237.5 -99.5t239.5 99t100.5 239v546q0 139 -100.5 238.5t-239.5 99.5t-237.5 -99t-98.5 -239v-546z" />
<glyph unicode="1" horiz-adv-x="888" d="M254 1329v131h254v-1460h-129v1329h-125z" />
<glyph unicode="2" horiz-adv-x="1132" d="M127 1169q41 135 160 216t280 81q195 0 321 -115.5t126 -306.5q0 -88 -30 -158.5t-99 -164.5l-555 -594h686v-127h-873v127l652 688q88 113 88 229q0 125 -92.5 209t-223.5 84q-109 0 -206 -60t-121 -171z" />
<glyph unicode="3" horiz-adv-x="1107" d="M84 242l113 65q31 -94 122 -143t199 -49q135 0 235.5 76.5t100.5 203.5q0 133 -91 207t-251 74h-53v135h53q143 0 225 70.5t82 191.5q0 123 -89 192.5t-212 69.5q-106 0 -186 -48t-113 -132l-110 64q45 117 154.5 182t254.5 65q195 0 316.5 -108.5t121.5 -284.5 q0 -229 -219 -321q248 -86 248 -359q0 -193 -133 -299t-334 -106q-160 0 -274.5 63.5t-159.5 190.5z" />
<glyph unicode="4" horiz-adv-x="1095" d="M80 233v129l649 1096h131v-1096h152v-129h-152v-233h-129v233h-651zM225 362h506v855z" />
<glyph unicode="5" horiz-adv-x="1159" d="M170 250l109 76q41 -96 125.5 -154.5t191.5 -58.5q137 0 235.5 97t98.5 236v91q0 141 -97.5 240.5t-236.5 99.5q-184 0 -291 -164h-127v745h828v-131h-701v-420q135 98 291 99q193 0 327 -136.5t134 -332.5v-91q0 -190 -134.5 -325t-326.5 -135q-137 0 -253 72.5 t-173 191.5z" />
<glyph unicode="6" horiz-adv-x="1185" d="M133 451v546q0 190 136.5 326.5t328.5 136.5q135 0 247.5 -72.5t168.5 -191.5l-105 -74q-37 94 -122 152.5t-189 58.5q-139 0 -237.5 -98t-98.5 -238v-227q137 143 336 143q190 0 325.5 -135t135.5 -327.5t-135.5 -327.5t-325.5 -135q-193 0 -329 135t-136 328z M262 450.5q0 -139.5 98.5 -237.5t237.5 -98q137 0 235.5 98t98.5 238q0 137 -98.5 235t-235.5 98q-139 0 -237.5 -97t-98.5 -236.5z" />
<glyph unicode="7" horiz-adv-x="1161" d="M152 1327v129h911v-129l-641 -1327h-141l637 1327h-766z" />
<glyph unicode="8" horiz-adv-x="1140" d="M102 428q0 121 63.5 222.5t172.5 158.5q-82 49 -130 128t-48 169q0 152 119.5 257t289.5 105q168 0 288 -106.5t120 -255.5q0 -90 -47 -169t-129 -128q106 -57 169.5 -158.5t63.5 -222.5q0 -182 -136 -311t-329 -129q-195 0 -331 129t-136 311zM231 428q0 -129 99.5 -221 t239 -92t238.5 92t99 221t-99 219t-238.5 90t-239 -90t-99.5 -219zM289 1106q0 -96 82 -165t198 -69q115 0 196 69t81 165q0 98 -81 166.5t-196 68.5q-117 0 -198.5 -68.5t-81.5 -166.5z" />
<glyph unicode="9" horiz-adv-x="1179" d="M125 1010q0 190 138 327.5t331 137.5q190 0 326.5 -137.5t136.5 -327.5v-551q0 -193 -136.5 -329t-326.5 -136q-137 0 -252 72.5t-170 193.5l107 76q37 -96 122.5 -155.5t192.5 -59.5q137 0 235.5 99t98.5 239v231q-137 -147 -334 -147q-193 0 -331 137t-138 330z M256 1010q0 -141 99.5 -239.5t238.5 -98.5t236.5 98t97.5 240q0 139 -98.5 238.5t-235.5 99.5q-139 0 -238.5 -99.5t-99.5 -238.5z" />
<glyph unicode=":" horiz-adv-x="552" d="M236 0v131h126v-131h-126zM236 584v131h126v-131h-126z" />
<glyph unicode=";" horiz-adv-x="561" d="M238 -131v262h127v-131zM238 584v131h127v-131h-127z" />
<glyph unicode="&#x3c;" horiz-adv-x="1425" d="M111 729l516 516l92 -90l-361 -360h940v-131h-940l105 -105l138 -138l118 -118l-92 -92z" />
<glyph unicode="=" horiz-adv-x="1062" d="M104 575v125h840v-125h-840zM104 827v127h840v-127h-840z" />
<glyph unicode="&#x3e;" horiz-adv-x="1411" d="M113 666v131h940q-111 109 -359 360l88 90l516 -516l-516 -518l-88 92q80 80 201 202t158 159h-940z" />
<glyph unicode="?" horiz-adv-x="1175" d="M143 1012q0 193 136.5 330t328.5 137q195 0 333 -137.5t138 -329.5q0 -174 -115.5 -303t-285.5 -154v-299h-129v420l74 2q135 4 229 100t94 234q0 139 -99 238.5t-239 99.5q-137 0 -235.5 -99.5t-98.5 -238.5h-131zM549 0h129v129h-129v-129z" />
<glyph unicode="@" horiz-adv-x="1763" d="M147 721q0 307 215.5 523t520.5 216q307 0 523 -216t216 -523q0 -305 -216 -520t-523 -215q-305 0 -520.5 215t-215.5 520zM268 721q0 -254 180.5 -434.5t434.5 -180.5t434 180.5t180 434.5t-180 434t-434 180t-434.5 -180t-180.5 -434zM565 659v125q0 119 86 204t207 85 q111 0 207 -82v82h86v-700h-86v82q-88 -82 -207 -82q-121 0 -207 83.5t-86 202.5zM670 668q0 -78 55 -133.5t133 -55.5t132 55.5t54 133.5v110q0 78 -55 132.5t-131 54.5q-78 0 -133 -55.5t-55 -131.5v-110z" />
<glyph unicode="A" horiz-adv-x="1323" d="M27 0l567 1460h137l563 -1460h-137l-139 360h-713l-139 -360h-139zM354 489h615l-305 793z" />
<glyph unicode="B" horiz-adv-x="1433" d="M205 0v1458h729q154 0 259 -106.5t105 -257.5q0 -98 -48 -181.5t-128 -130.5q84 -59 133.5 -150t49.5 -196v-14q0 -176 -124 -299t-298 -123h-678zM334 129h549q121 0 207 85t86 208v14q0 121 -85 206t-206 87h-551v-600zM334 856h549h51q98 0 167.5 69.5t69.5 168.5 q0 96 -69.5 165.5t-167.5 69.5h-600v-473z" />
<glyph unicode="C" horiz-adv-x="1439" d="M154 584v293q0 244 179 418.5t431 174.5q182 0 329.5 -95t221.5 -247l-107 -73q-55 129 -175 208.5t-269 79.5q-199 0 -340 -137t-141 -329v-293q0 -195 140 -331t341 -136q147 0 268 79.5t176 206.5l107 -73q-59 -139 -215 -240.5t-336 -101.5q-252 0 -431 174t-179 422 z" />
<glyph unicode="D" horiz-adv-x="1452" d="M211 0v1460h547q227 0 388 -159.5t161 -387.5v-368q0 -225 -161 -385t-388 -160h-547zM340 127h418q174 0 299 123t125 295v368q0 172 -125 296t-299 124h-418v-1206z" />
<glyph unicode="E" horiz-adv-x="1429" d="M211 0v1460h1096v-129h-967v-536h829v-129h-829v-537h967v-129h-1096z" />
<glyph unicode="F" horiz-adv-x="1380" d="M211 0v1460h1096v-129h-965v-536h829v-129h-829v-666h-131z" />
<glyph unicode="G" horiz-adv-x="1527" d="M152 586v293q0 244 178 417.5t432 173.5q182 0 328.5 -94t218.5 -243l-105 -74q-55 129 -175 209t-267 80q-203 0 -343 -137.5t-140 -331.5v-293q0 -193 140 -330t343 -137q197 0 339 137t142 330v84h-481v129h608v-213q0 -246 -178 -422t-430 -176t-431 176t-179 422z " />
<glyph unicode="H" horiz-adv-x="1409" d="M166 0v1458h129v-665h835v665h130v-1458h-130v664h-835v-664h-129z" />
<glyph unicode="I" horiz-adv-x="528" d="M195 0v1458h129v-1458h-129z" />
<glyph unicode="J" horiz-adv-x="1312" d="M37 532h129q0 -172 122 -293.5t296 -121.5q172 0 294.5 121.5t122.5 293.5v797h-417v129h546v-926q0 -225 -160.5 -384.5t-385.5 -159.5q-227 0 -387 159.5t-160 384.5z" />
<glyph unicode="K" horiz-adv-x="1390" d="M211 0v1458h127v-803l801 803h166l-654 -670l654 -788h-168l-578 696l-219 -223v-473h-129z" />
<glyph unicode="L" horiz-adv-x="1419" d="M211 0v1458h129v-1319h965v-139h-1094z" />
<glyph unicode="M" horiz-adv-x="1927" d="M211 0v1458h154l593 -1319l592 1319h154v-1458h-127v1204l-553 -1204h-129l-555 1206v-1206h-129z" />
<glyph unicode="N" horiz-adv-x="1511" d="M211 0v1458h129l836 -1227v1227h129v-1458h-129l-836 1231v-1231h-129z" />
<glyph unicode="O" horiz-adv-x="1529" d="M156 584v290q0 248 178 422t432 174q252 0 431 -174t179 -422v-290q0 -246 -179 -421t-431 -175q-254 0 -432 175t-178 421zM285 584q0 -195 140 -331t341 -136t341 136t140 331v290q0 195 -141 333.5t-340 138.5t-340 -138.5t-141 -333.5v-290z" />
<glyph unicode="P" horiz-adv-x="1404" d="M211 0v1458h639q190 0 323.5 -132t133.5 -320q0 -190 -133.5 -324.5t-323.5 -134.5h-510v-547h-129zM340 678h510q137 0 232.5 95t95.5 233q0 135 -96.5 231t-231.5 96h-510v-655z" />
<glyph unicode="Q" horiz-adv-x="1538" d="M156 586v291q0 246 179 419.5t431 173.5q250 0 429 -174t179 -419v-291q0 -244 -168 -412l170 -172l-90 -90l-178 180q-152 -104 -342 -104q-252 0 -431 175t-179 423zM285 586q0 -195 140 -332t341 -137q133 0 250 67l-205 205l92 88l215 -213q127 141 127 322v291 q0 193 -140 329.5t-339 136.5q-201 0 -341 -137t-140 -329v-291z" />
<glyph unicode="R" horiz-adv-x="1445" d="M211 0v1458h639q188 0 322.5 -133t134.5 -321q0 -182 -124 -313.5t-304 -143.5l450 -547h-164l-442 547h-383v-547h-129zM340 676h510q135 0 231.5 95t96.5 233q0 133 -96.5 230t-231.5 97h-510v-655z" />
<glyph unicode="S" horiz-adv-x="1306" d="M82 180l106 92q174 -156 455 -155q180 0 302 77.5t122 204.5q0 119 -76 183q-70 53 -254 75l-188 27q-217 35 -299 104q-123 96 -123 271q0 188 139.5 301t378.5 113q154 0 265.5 -37t215.5 -123l-98 -88q-145 119 -389 118q-164 0 -274.5 -77.5t-110.5 -198.5 q0 -109 73.5 -170t262.5 -88l176 -25q207 -25 293 -92q139 -109 139 -289q0 -193 -153.5 -304t-405.5 -111q-182 0 -311 45t-246 147z" />
<glyph unicode="T" horiz-adv-x="1222" d="M63 1331v127h1096v-127h-485v-1331h-125v1331h-486z" />
<glyph unicode="U" horiz-adv-x="1462" d="M186 535v923h129v-923q0 -174 122 -296t296 -122q172 0 294 121.5t122 296.5v923h129v-923q0 -225 -160 -386t-385 -161q-227 0 -387 161t-160 386z" />
<glyph unicode="V" horiz-adv-x="1366" d="M104 1458h138l493 -1284l498 1284h139l-567 -1458h-137z" />
<glyph unicode="W" horiz-adv-x="2043" d="M29 1458h135l393 -1272l395 1272h138l391 -1272l393 1272h139l-463 -1458h-139l-391 1239l-393 -1239h-140z" />
<glyph unicode="X" horiz-adv-x="1177" d="M33 0l469 741l-469 717h153l392 -600l393 600h153l-469 -717l469 -741h-153l-393 623l-392 -623h-153z" />
<glyph unicode="Y" horiz-adv-x="1128" d="M18 1458h154l391 -596l395 596h154l-483 -731v-727h-129v727z" />
<glyph unicode="Z" horiz-adv-x="1327" d="M119 0v129l930 1200h-930v129h1093v-129l-933 -1200h933v-129h-1093z" />
<glyph unicode="[" horiz-adv-x="530" d="M182 -256v1966h258v-129h-123v-1706h123v-131h-258z" />
<glyph unicode="\" horiz-adv-x="774" d="M2 1710h137l635 -1966h-143z" />
<glyph unicode="]" horiz-adv-x="536" d="M92 -125h123v1706h-123v129h254v-1966h-254v131z" />
<glyph unicode="^" horiz-adv-x="948" d="M147 977l256 493h142l254 -493h-123l-201 360l-201 -360h-127z" />
<glyph unicode="_" horiz-adv-x="1099" d="M0 -209h1100v-129h-1100v129z" />
<glyph unicode="`" horiz-adv-x="1024" d="M256 1530h176l180 -313h-135z" />
<glyph unicode="a" d="M102 414v182q0 174 125 299t301.5 125t298.5 -123v123h127v-1032h-127v125q-129 -125 -299 -125q-176 0 -301 125t-125 301zM229 414q0 -123 87 -211t212 -88q123 0 210 88t87 211v182q0 123 -87 210t-210 87q-125 0 -212 -87t-87 -210v-182z" />
<glyph unicode="b" horiz-adv-x="1161" d="M184 -12v1446h125v-537q133 123 297 123q180 0 305 -124t125 -300v-186q0 -172 -126 -297t-304 -125q-160 0 -297 123v-123h-125zM309 410q0 -119 89 -208t208 -89q125 0 213 88t88 209v186q0 123 -88 209t-213 86q-121 0 -209 -86t-88 -209v-186z" />
<glyph unicode="c" horiz-adv-x="997" d="M129 414v182q0 176 124 300t302 124q102 0 195.5 -48t152.5 -132l-104 -76q-90 129 -244 129q-125 0 -212 -87t-87 -210v-182q0 -123 88 -211t211 -88q152 0 244 129l104 -72q-59 -86 -152.5 -135t-195.5 -49q-178 0 -302 125t-124 301z" />
<glyph unicode="d" horiz-adv-x="1163" d="M131 410v186q0 176 125 300t305 124q164 0 297 -123v537h125v-1446h-125v123q-137 -123 -297 -123q-178 0 -304 125t-126 297zM260 410q0 -121 88 -209t213 -88q119 0 208 89t89 208v186q0 123 -88 209t-209 86q-125 0 -213 -86t-88 -209v-186z" />
<glyph unicode="e" horiz-adv-x="1122" d="M150 414v182q0 174 124.5 299t301 125t301 -124t124.5 -300v-160h-725v-22q0 -123 88.5 -211t210.5 -88h312v-127h-312q-174 0 -299.5 125t-125.5 301zM276 563h596v33q0 123 -87 210t-209.5 87t-211 -87t-88.5 -210v-33z" />
<glyph unicode="f" horiz-adv-x="696" d="M90 903v125h127v109q0 174 125 298t295 124v-127q-119 0 -205 -87.5t-86 -207.5v-109h287v-125h-287v-903h-129v903h-127z" />
<glyph unicode="g" horiz-adv-x="1157" d="M131 422v176q0 176 122 299t296 123t295 -121v121h127v-1018q0 -176 -122 -297t-300 -121h-176v123h176q121 0 208 86t87 209v119q-119 -119 -295 -119q-174 0 -296 123t-122 297zM254 422q0 -121 87 -208t208 -87t208 87t87 208v176q0 121 -87 208t-208 87t-208 -87 t-87 -208v-176z" />
<glyph unicode="h" horiz-adv-x="1204" d="M184 0v1432h127v-533q137 123 297 123q174 0 298 -124t124 -298v-600h-127v600q0 123 -87 210t-208 87t-208 -87t-87 -210v-600h-129z" />
<glyph unicode="i" horiz-adv-x="501" d="M184 0v1008h125v-1008h-125zM184 1130v123h125v-123h-125z" />
<glyph unicode="j" horiz-adv-x="530" d="M-49 -285q119 0 203 83t84 202v885h-121v123h243v-1008q0 -168 -119.5 -290t-289.5 -122v127zM238 1130v123h122v-123h-122z" />
<glyph unicode="k" horiz-adv-x="1097" d="M184 0v1409h125v-936l533 535h174l-410 -408l414 -600h-150l-348 510l-213 -213v-297h-125z" />
<glyph unicode="l" horiz-adv-x="493" d="M180 0v1409h127v-1409h-127z" />
<glyph unicode="m" horiz-adv-x="1933" d="M184 0v1020h123v-121q121 121 297 121q111 0 205 -54.5t152 -144.5q55 90 151 144.5t205 54.5q174 0 297 -123t123 -297v-600h-125v600q0 123 -87 209t-208 86t-206 -86t-85 -209v-600h-129v600q0 123 -86 209t-207 86q-123 0 -209 -86t-86 -209v-600h-125z" />
<glyph unicode="n" horiz-adv-x="1210" d="M184 0v1020h123v-121q121 121 295 121q172 0 296 -123t124 -297v-600h-127v600q0 123 -86 209t-207 86q-123 0 -208 -86t-85 -209v-600h-125z" />
<glyph unicode="o" horiz-adv-x="1116" d="M131 412v182q0 174 125 300t301 126t304 -126t128 -300v-182q0 -176 -127 -300t-305 -124q-176 0 -301 124t-125 300zM260 412q0 -125 88 -213t209 -88q123 0 212 88t89 213v182q0 123 -89 210t-212 87q-121 0 -209 -87t-88 -210v-182z" />
<glyph unicode="p" horiz-adv-x="1167" d="M184 -442v1462h127v-121q117 121 297 121q176 0 302 -125t126 -301v-180q0 -178 -125 -301t-303 -123q-176 0 -297 116v-548h-127zM311 414q0 -125 88 -214t209 -89q125 0 212 88t87 215v180q0 123 -87 210t-212 87q-121 0 -209 -87t-88 -210v-180z" />
<glyph unicode="q" horiz-adv-x="1163" d="M131 414v180q0 176 126 301t302 125q180 0 297 -121v121h127v-1462h-127v548q-121 -117 -297 -116q-178 0 -303 123t-125 301zM260 414q0 -127 87 -215t212 -88q121 0 209 89t88 214v180q0 123 -88 210t-209 87q-125 0 -212 -87t-87 -210v-180z" />
<glyph unicode="r" horiz-adv-x="931" d="M184 0v1018h127v-117q119 119 295 119q182 0 301 -137l-100 -74q-88 82 -201 82q-123 0 -209 -86t-86 -209v-596h-127z" />
<glyph unicode="s" horiz-adv-x="993" d="M90 178l103 68q35 -49 108.5 -93t181.5 -44q113 0 196 44t83 134q0 72 -40 108.5t-130 44.5l-162 15q-145 14 -222 87.5t-77 196.5t102.5 202t251.5 79q236 0 336 -152l-98 -73q-74 106 -242 106q-111 0 -165 -49t-54 -113q0 -145 176 -164l158 -14q291 -25 291 -274 q0 -117 -87 -198t-237 -95q-66 -4 -94 -4q-117 0 -218.5 51t-160.5 137z" />
<glyph unicode="t" horiz-adv-x="655" d="M127 408v1015h121v-415h291v-127h-291v-473q0 -121 86 -208t207 -87v-127q-172 0 -293 123t-121 299z" />
<glyph unicode="u" horiz-adv-x="1202" d="M174 412v596h127v-596q0 -123 84 -209t203 -86q123 0 210 86t87 209v596h127v-1020h-127v123q-117 -123 -297 -123q-170 0 -292 124t-122 300z" />
<glyph unicode="v" horiz-adv-x="980" d="M23 1008h131l333 -838l334 838h135l-401 -1008h-135z" />
<glyph unicode="w" horiz-adv-x="1482" d="M25 1008h129l260 -807l264 807h127l264 -807l258 807h131l-334 -1008h-120l-263 782l-262 -782h-123z" />
<glyph unicode="x" horiz-adv-x="966" d="M72 0l338 518l-324 490h147l250 -379l244 379h150l-320 -490l336 -518h-152l-258 401l-262 -401h-149z" />
<glyph unicode="y" horiz-adv-x="1091" d="M127 412v596h125v-596q0 -123 86 -208t209 -85q121 0 206 85t85 208v596h127v-1014q0 -174 -123 -297t-295 -123h-182v125h182q121 0 206 86t85 209v119q-119 -119 -291 -119q-174 0 -297 122t-123 296z" />
<glyph unicode="z" horiz-adv-x="1077" d="M133 0v123l666 760h-666v125h832v-125l-670 -760h670v-123h-832z" />
<glyph unicode="{" horiz-adv-x="573" d="M125 670v127h127v917h258v-129h-123v-1706h123v-131h-258v922h-127z" />
<glyph unicode="|" horiz-adv-x="653" d="M258 -250v1968h129v-1968h-129z" />
<glyph unicode="}" horiz-adv-x="573" d="M125 -121h123v1706h-123v129h258v-917h127v-127h-127v-922h-258v131z" />
<glyph unicode="~" horiz-adv-x="1103" d="M100 698q84 84 138.5 112t126.5 28q74 0 215 -64q106 -49 159 -49q45 0 80 17.5t92 74.5l93 -92q-84 -84 -138.5 -111.5t-126.5 -27.5q-76 0 -217 63q-106 49 -160 49q-45 0 -79.5 -17t-92.5 -75z" />
<glyph unicode="&#xa1;" horiz-adv-x="647" d="M291 0h129v1153h-129v-1153zM291 1282v127h129v-127h-129z" />
<glyph unicode="&#xa2;" horiz-adv-x="1019" d="M139 639v182q0 160 105.5 281t263.5 143v215h129v-217q174 -25 283 -178l-105 -72q-94 129 -246 129q-125 0 -213 -89t-88 -212v-182q0 -125 88 -213t213 -88q154 0 246 129l105 -74q-102 -147 -283 -180v-213h-129v213q-158 23 -263.5 143.5t-105.5 282.5z" />
<glyph unicode="&#xa3;" horiz-adv-x="1013" d="M96 670v131h131v117q0 229 160 390.5t389 161.5v-129q-174 0 -298 -124.5t-124 -298.5v-117h355v-131h-355v-539h564v-131h-691v670h-131z" />
<glyph unicode="&#xa5;" horiz-adv-x="1128" d="M18 1458h154l391 -596l395 596h154l-483 -731h356v-127h-356v-127h356v-125h-356v-348h-129v348h-355v125h355v127h-355v127h355z" />
<glyph unicode="&#xa6;" horiz-adv-x="653" d="M258 -250v864h129v-864h-129zM258 854v864h129v-864h-129z" />
<glyph unicode="&#xa7;" horiz-adv-x="993" d="M123 723q0 178 121 244q-113 76 -113 225q0 123 102.5 202t251.5 79q236 0 336 -152l-98 -74q-74 106 -242 107q-111 0 -165 -49.5t-54 -112.5q0 -143 176 -164l125 -14q215 -18 271 -156q8 -18 10 -33q10 -45 10 -86q0 -180 -121 -243q113 -76 113 -226 q0 -123 -102.5 -201.5t-251.5 -78.5q-236 0 -336 151l98 74q74 -106 242 -106q111 0 165 49t54 112q0 143 -176 164l-125 15q-219 20 -271 155q-8 20 -12 33q-8 33 -8 86zM248 723q0 -37 8 -61q29 -80 162 -93q2 -8 65 -8q106 0 176 44t70 134q0 31 -10 62q-27 78 -160 92 q-12 8 -65 8q-106 0 -176 -44t-70 -134z" />
<glyph unicode="&#xa8;" horiz-adv-x="1024" d="M350 1335v125h127v-125h-127zM555 1335v125h129v-125h-129z" />
<glyph unicode="&#xa9;" horiz-adv-x="776" d="M160 1233q0 96 65.5 162.5t161.5 66.5q94 0 159.5 -66.5t65.5 -162.5q0 -92 -65.5 -157.5t-159.5 -65.5t-160.5 65.5t-66.5 157.5zM197 1233q0 -76 56 -131t134 -55q76 0 132 55t56 131q0 80 -55 136t-133 56t-134 -56t-56 -136zM299 1214v43q0 37 25.5 63t62.5 26 q55 0 82 -52l-31 -22q-10 33 -51 33q-23 0 -38 -15.5t-15 -38.5v-32q0 -23 15.5 -38.5t37.5 -15.5q41 0 51 33l31 -20q-20 -51 -82 -52q-37 0 -62.5 25.5t-25.5 62.5z" />
<glyph unicode="&#xaa;" horiz-adv-x="974" d="M190 1030v131q0 123 88.5 211t210.5 88q131 0 213 -88v88h91v-729h-91v88q-88 -88 -213 -88q-123 0 -211 88t-88 211zM281 1030q0 -84 61 -146.5t147 -62.5q88 0 149.5 62.5t61.5 146.5v131q0 86 -61 147.5t-150 61.5q-86 0 -147 -61.5t-61 -147.5v-131z" />
<glyph unicode="&#xab;" horiz-adv-x="1214" d="M135 731l516 516l88 -90q0 -2 -109.5 -108.5t-216 -212t-102.5 -105.5q-2 0 41 -44t106.5 -107.5t127 -125t109.5 -106.5t44 -43l-88 -92zM496 731l516 516l88 -90q0 -2 -109.5 -108.5t-216 -212t-102.5 -105.5q-2 0 41 -44t106.5 -107.5t127 -125t109.5 -106.5t44 -43 l-88 -92z" />
<glyph unicode="&#xac;" horiz-adv-x="1062" d="M104 827v127h840v-510h-125v383h-715z" />
<glyph unicode="&#xad;" horiz-adv-x="813" d="M156 483v127h506v-127h-506z" />
<glyph unicode="&#xae;" horiz-adv-x="776" d="M160 1233q0 96 65.5 162.5t161.5 66.5q94 0 159.5 -66.5t65.5 -162.5q0 -92 -65.5 -157.5t-159.5 -65.5t-160.5 65.5t-66.5 157.5zM197 1233q0 -76 56 -131t134 -55q76 0 132 55t56 131q0 80 -55 136t-133 56t-134 -56t-56 -136zM313 1128v215h93q29 0 48 -19t19 -48 q0 -27 -17.5 -45.5t-45.5 -20.5l67 -82h-47l-63 82h-17v-82h-37zM350 1245h51q14 0 23.5 9.5t9.5 21.5q0 33 -33 33h-51v-64z" />
<glyph unicode="&#xaf;" horiz-adv-x="1058" d="M283 1217v126h505v-126h-505z" />
<glyph unicode="&#xb0;" horiz-adv-x="899" d="M172 1175.5q0 116.5 83 198.5t198 82q119 0 201.5 -82t82.5 -198q0 -123 -83 -208t-201 -85q-115 0 -198 88t-83 204.5zM276 1171q0 -76 52.5 -128t124.5 -52q76 0 128 52.5t52 127.5q0 72 -52.5 124.5t-127.5 52.5q-72 0 -124.5 -52.5t-52.5 -124.5z" />
<glyph unicode="&#xb1;" horiz-adv-x="1050" d="M106 96v127h834v-127h-834zM106 700v127h355v353h127v-353h352v-127h-352v-350h-127v350h-355z" />
<glyph unicode="&#xb2;" horiz-adv-x="757" d="M156 1315q20 68 79.5 108.5t139.5 40.5q98 0 161.5 -58t63.5 -153q0 -74 -65 -161l-279 -297h344v-64h-436v64l325 344q45 53 45.5 114.5t-46 103.5t-113.5 42q-55 0 -103.5 -30t-60.5 -85z" />
<glyph unicode="&#xb3;" horiz-adv-x="743" d="M143 856l58 33q16 -47 60 -71.5t97 -24.5q68 0 118 37.5t50 101.5q0 66 -45 102.5t-125 36.5h-26v68h26q70 0 111 34.5t41 94.5q0 61 -44 96t-106 35q-53 0 -93 -24.5t-54 -65.5l-55 30q47 123 202 123q96 0 158 -53t62 -141q0 -113 -109 -160q123 -45 123 -176 q0 -96 -66.5 -149.5t-167.5 -53.5q-170 0 -215 127z" />
<glyph unicode="&#xb4;" horiz-adv-x="1024" d="M438 1217l137 241h138l-138 -241h-137z" />
<glyph unicode="&#xb5;" horiz-adv-x="1093" d="M127 -426v1434h127v-596q0 -123 85 -208t206 -85q123 0 209 85t86 208v596h125v-1014h-125v119q-59 -49 -142.5 -84t-152.5 -35q-170 0 -291 121v-541h-127z" />
<glyph unicode="&#xb6;" horiz-adv-x="1249" d="M156 1006q0 188 133 320t323 132h484v-125h-129v-1333h-129v547h-72v-547h-129v547h-25q-190 0 -323 134.5t-133 324.5zM285 1006q0 -137 95 -232.5t232 -95.5h25v655h-25q-135 0 -231 -96t-96 -231zM766 678h72v655h-72v-655z" />
<glyph unicode="&#xb7;" horiz-adv-x="493" d="M180 131v131h127v-131h-127z" />
<glyph unicode="&#xb8;" horiz-adv-x="1064" d="M422 -375l137 242h137l-137 -242h-137z" />
<glyph unicode="&#xb9;" horiz-adv-x="436" d="M156 1395v65h125v-725h-64v660h-61z" />
<glyph unicode="&#xba;" horiz-adv-x="974" d="M184 1030v133q0 125 90.5 215t214.5 90q127 0 219.5 -90t92.5 -215v-133q0 -125 -92.5 -214t-219.5 -89t-216 89t-89 214zM279 1030q0 -90 61 -152.5t149 -62.5q90 0 154 63.5t64 151.5v133q0 88 -63.5 149.5t-154.5 61.5q-88 0 -149 -61.5t-61 -149.5v-133z" />
<glyph unicode="&#xbb;" horiz-adv-x="1214" d="M137 305q-2 -2 44 43t109.5 106.5t127 125t106.5 107.5t41 44q4 0 -102.5 105.5t-216 212t-109.5 108.5l88 90l516 -516l-516 -518zM498 305q-2 -2 44 43t109.5 106.5t127 125t106.5 107.5t41 44q4 0 -102.5 105.5t-216 212t-109.5 108.5l88 90l516 -516l-516 -518z" />
<glyph unicode="&#xbc;" horiz-adv-x="1353" d="M88 0l1088 1458h75l-1085 -1458h-78zM262 1393v65h125v-725h-63v660h-62zM772 117v65l328 553h65v-553h76v-65h-76v-117h-65v117h-328zM846 182h254v430z" />
<glyph unicode="&#xbd;" horiz-adv-x="1353" d="M88 0l1088 1458h75l-1085 -1458h-78zM262 1393v65h125v-725h-63v660h-62zM809 584q20 68 79.5 108.5t139.5 40.5q98 0 161.5 -58.5t63.5 -152.5q0 -74 -65 -162l-279 -297h344v-63h-436v63l326 345q45 53 45 114.5t-46 103.5t-114 42q-55 0 -103 -30t-61 -85z" />
<glyph unicode="&#xbe;" horiz-adv-x="1353" d="M72 856l57 33q16 -47 60 -71.5t98 -24.5q68 0 118 37.5t50 101.5q0 66 -45 102.5t-125 36.5h-27v68h27q70 0 110.5 34.5t40.5 94.5q0 61 -44 96t-105 35q-53 0 -93 -24.5t-55 -65.5l-55 30q47 123 203 123q96 0 157.5 -53t61.5 -141q0 -113 -109 -160q123 -45 123 -176 q0 -96 -66.5 -149.5t-166.5 -53.5q-170 0 -215 127zM133 0l1088 1458h75l-1085 -1458h-78zM772 117v65l328 553h65v-553h76v-65h-76v-117h-65v117h-328zM846 182h254v430z" />
<glyph unicode="&#xbf;" horiz-adv-x="1175" d="M145 457q0 174 116 303t286 153v299h129v-419l-74 -2q-135 -4 -229 -100.5t-94 -233.5q0 -139 99 -238.5t238 -99.5q137 0 235.5 99t98.5 239h131q0 -193 -136 -330t-329 -137q-195 0 -333 137t-138 330zM547 1339v129h129v-129h-129z" />
<glyph unicode="&#xc0;" horiz-adv-x="1323" d="M27 0l567 1460h137l563 -1460h-137l-139 360h-713l-139 -360h-139zM354 489h615l-305 793zM526 1833h138l137 -242h-137z" />
<glyph unicode="&#xc1;" horiz-adv-x="1323" d="M27 0l567 1460h137l563 -1460h-137l-139 360h-713l-139 -360h-139zM354 489h615l-305 793zM526 1591l138 242h137l-137 -242h-138z" />
<glyph unicode="&#xc2;" horiz-adv-x="1323" d="M27 0l567 1460h137l563 -1460h-137l-139 360h-713l-139 -360h-139zM354 489h615l-305 793zM457 1585l137 242h137l137 -242h-96l-110 148l-109 -148h-96z" />
<glyph unicode="&#xc3;" horiz-adv-x="1323" d="M27 0l567 1460h137l563 -1460h-137l-139 360h-713l-139 -360h-139zM297 1673q66 66 107.5 87.5t97.5 21.5q57 0 168 -51q82 -37 127 -37q35 0 61.5 13t71.5 58l71 -71q-66 -66 -108.5 -87.5t-95.5 -21.5q-68 0 -170 49q-94 39 -127 39q-59 0 -138 -74zM354 489h615 l-305 793z" />
<glyph unicode="&#xc4;" horiz-adv-x="1323" d="M27 0l567 1460h137l563 -1460h-137l-139 360h-713l-139 -360h-139zM354 489h615l-305 793zM496 1585v125h127v-125h-127zM700 1585v125h129v-125h-129z" />
<glyph unicode="&#xc5;" horiz-adv-x="1323" d="M29 0l567 1462h137l563 -1462h-137l-139 362h-713l-139 -362h-139zM356 492h615l-305 790zM485 1759.5q0 73.5 52.5 125.5t126 52t126 -52t52.5 -125.5t-52.5 -126t-126 -52.5t-126 52.5t-52.5 126zM590 1761q0 -33 21.5 -54t52 -21t52 21.5t21.5 53.5q0 29 -21.5 50.5 t-52 21.5t-52 -21.5t-21.5 -50.5z" />
<glyph unicode="&#xc6;" horiz-adv-x="2316" d="M59 2l1002 1458h1096v-129h-967v-536h829v-129h-829v-537h967v-129h-1096v358h-594l-242 -356h-166zM555 487h506v746z" />
<glyph unicode="&#xc7;" horiz-adv-x="1529" d="M154 584v293q0 244 179 418.5t431 174.5q182 0 329.5 -95t221.5 -247l-107 -73q-55 129 -175 208.5t-269 79.5q-199 0 -340 -137t-141 -329v-293q0 -195 140 -331t341 -136q147 0 268 79.5t176 206.5l107 -73q-59 -139 -215 -240.5t-336 -101.5q-252 0 -431 174t-179 422 zM629 -375l137 242h137l-137 -242h-137z" />
<glyph unicode="&#xc8;" horiz-adv-x="1429" d="M211 0v1460h1096v-129h-967v-536h829v-129h-829v-537h967v-129h-1096zM641 1833h137l137 -242h-137z" />
<glyph unicode="&#xc9;" horiz-adv-x="1429" d="M211 0v1460h1096v-129h-967v-536h829v-129h-829v-537h967v-129h-1096zM641 1591l137 242h137l-137 -242h-137z" />
<glyph unicode="&#xca;" horiz-adv-x="1429" d="M211 0v1460h1096v-129h-967v-536h829v-129h-829v-537h967v-129h-1096zM569 1583l138 242h137l137 -242h-96l-111 148l-108 -148h-97z" />
<glyph unicode="&#xcb;" horiz-adv-x="1429" d="M211 0v1460h1096v-129h-967v-536h829v-129h-829v-537h967v-129h-1096zM610 1585v125h127v-125h-127zM815 1585v125h129v-125h-129z" />
<glyph unicode="&#xcc;" horiz-adv-x="528" d="M125 1833h137l137 -242h-137zM201 0v1458h129v-1458h-129z" />
<glyph unicode="&#xcd;" horiz-adv-x="528" d="M125 1591l137 242h137l-137 -242h-137zM195 0h129v1458h-129v-1458z" />
<glyph unicode="&#xce;" horiz-adv-x="528" d="M59 1585l138 242h127l147 -242h-96l-111 148l-108 -148h-97zM195 0h129v1458h-129v-1458z" />
<glyph unicode="&#xcf;" horiz-adv-x="528" d="M94 1583v125h127v-125h-127zM195 0v1458h129v-1458h-129zM299 1583v125h129v-125h-129z" />
<glyph unicode="&#xd0;" horiz-adv-x="1452" d="M82 664v127h129v669h547q227 0 388 -159.5t161 -387.5v-368q0 -225 -161 -385t-388 -160h-547v664h-129zM340 127h418q174 0 299 123t125 295v368q0 172 -125 296t-299 124h-418v-542h129v-127h-129v-537z" />
<glyph unicode="&#xd1;" horiz-adv-x="1511" d="M211 0v1458h129l836 -1227v1227h129v-1458h-129l-836 1231v-1231h-129zM406 1673q66 66 107.5 87.5t96.5 21.5q57 0 168 -51q82 -37 127 -37q35 0 61.5 13t71.5 58l72 -71q-66 -66 -109 -87.5t-96 -21.5q-57 0 -170 49q-94 39 -127 39q-59 0 -137 -74z" />
<glyph unicode="&#xd2;" horiz-adv-x="1529" d="M156 584v290q0 248 179 422t431 174q254 0 432 -174t178 -422v-290q0 -246 -178 -421t-432 -175q-252 0 -431 175t-179 421zM285 584q0 -195 140 -331t341 -136t341 136t140 331v290q0 195 -141 333.5t-340 138.5t-340 -138.5t-141 -333.5v-290zM629 1833h137l137 -242 h-137z" />
<glyph unicode="&#xd3;" horiz-adv-x="1529" d="M156 584v290q0 248 178 422t432 174q252 0 431 -174t179 -422v-290q0 -246 -179 -421t-431 -175q-254 0 -432 175t-178 421zM285 584q0 -195 140 -331t341 -136t341 136t140 331v290q0 195 -141 333.5t-340 138.5t-340 -138.5t-141 -333.5v-290zM629 1591l137 242h137 l-137 -242h-137z" />
<glyph unicode="&#xd4;" horiz-adv-x="1529" d="M156 584v290q0 248 178 422t432 174q252 0 431 -174t179 -422v-290q0 -246 -179 -421t-431 -175q-254 0 -432 175t-178 421zM285 584q0 -195 140 -331t341 -136t341 136t140 331v290q0 195 -141 333.5t-340 138.5t-340 -138.5t-141 -333.5v-290zM561 1583l137 242h138 l137 -242h-96l-111 148l-109 -148h-96z" />
<glyph unicode="&#xd5;" horiz-adv-x="1529" d="M156 584v290q0 248 178 422t432 174q252 0 431 -174t179 -422v-290q0 -246 -179 -421t-431 -175q-254 0 -432 175t-178 421zM285 584q0 -195 140 -331t341 -136t341 136t140 331v290q0 195 -141 333.5t-340 138.5t-340 -138.5t-141 -333.5v-290zM410 1673 q66 66 107.5 87.5t96.5 21.5q57 0 168 -51q82 -37 127 -37q35 0 61.5 13t71.5 58l72 -71q-66 -66 -108.5 -87.5t-96.5 -21.5q-68 0 -170 49q-94 39 -127 39q-59 0 -137 -74z" />
<glyph unicode="&#xd6;" horiz-adv-x="1529" d="M156 584v290q0 248 178 422t432 174q252 0 431 -174t179 -422v-290q0 -246 -179 -421t-431 -175q-254 0 -432 175t-178 421zM285 584q0 -195 140 -331t341 -136t341 136t140 331v290q0 195 -141 333.5t-340 138.5t-340 -138.5t-141 -333.5v-290zM602 1585v125h127v-125 h-127zM807 1585v125h129v-125h-129z" />
<glyph unicode="&#xd7;" horiz-adv-x="950" d="M131 524l252 250l-252 250l92 90l252 -250l250 250l90 -90l-250 -250l250 -250l-90 -88l-250 250l-252 -250z" />
<glyph unicode="&#xd8;" horiz-adv-x="1529" d="M154 203l82 80q-82 135 -82 301v293q0 244 178 418.5t430 174.5q276 0 459 -204l67 69l82 -78l-82 -81q84 -141 84 -299v-293q0 -248 -179 -422t-431 -174q-274 0 -457 202l-69 -69zM283 584q0 -111 47 -205l798 799q-139 166 -366 165q-199 0 -339 -137t-140 -329v-293z M395 283q143 -166 367 -166q199 0 341 136t142 331v293q0 100 -49 204z" />
<glyph unicode="&#xd9;" horiz-adv-x="1462" d="M188 535v923h129v-923q0 -174 122 -296t294 -122q174 0 296 121.5t122 296.5v923h129v-923q0 -225 -159.5 -386t-387.5 -161q-225 0 -385 161t-160 386zM594 1833h137l137 -242h-137z" />
<glyph unicode="&#xda;" horiz-adv-x="1462" d="M186 535v923h129v-923q0 -174 122 -296t296 -122q172 0 294 121.5t122 296.5v923h129v-923q0 -225 -160 -386t-385 -161q-227 0 -387 161t-160 386zM598 1591l137 242h137l-137 -242h-137z" />
<glyph unicode="&#xdb;" horiz-adv-x="1462" d="M188 535q0 -225 160 -386t385 -161q227 0 387 160.5t160 386.5v923h-129v-923q0 -174 -122 -296t-296 -122q-172 0 -294 121.5t-122 296.5v923h-129v-923zM528 1583l138 242h137l137 -242h-96l-111 148l-108 -148h-97z" />
<glyph unicode="&#xdc;" horiz-adv-x="1462" d="M186 535v923h129v-923q0 -174 122 -296t296 -122q172 0 294 121.5t122 296.5v923h129v-923q0 -225 -160 -386t-385 -161q-227 0 -387 161t-160 386zM571 1585v125h127v-125h-127zM776 1585v125h129v-125h-129z" />
<glyph unicode="&#xdd;" horiz-adv-x="1128" d="M18 1458h154l391 -596l395 596h154l-483 -731v-727h-129v727zM428 1591l201 242h73l-137 -242h-137z" />
<glyph unicode="&#xde;" horiz-adv-x="1167" d="M184 -250v1501h127v-352q117 121 297 121q176 0 302 -125t126 -301v-180q0 -178 -125 -301t-303 -123q-176 0 -297 116v-356h-127zM311 414q0 -125 88 -214t209 -89q125 0 212 88t87 215v180q0 123 -87 210t-212 87q-121 0 -209 -87t-88 -210v-180z" />
<glyph unicode="&#xdf;" horiz-adv-x="1282" d="M205 0v129h127v1329h442q154 0 259.5 -106.5t105.5 -257.5q0 -98 -48.5 -181.5t-127.5 -130.5q84 -59 133 -150t49 -196v-14q0 -176 -124 -299t-298 -123h-135v129h135q121 0 207 85t86 208v14q0 121 -85 206t-206 87h-264v-729h-256zM461 856h313q98 0 168 69.5 t70 168.5q0 96 -70 165.5t-168 69.5h-313v-473z" />
<glyph unicode="&#xe0;" d="M102 414v182q0 174 125 299t301.5 125t298.5 -123v123h127v-1032h-127v125q-129 -125 -299 -125q-176 0 -301 125t-125 301zM229 414q0 -123 87 -211t212 -88q123 0 210 88t87 211v182q0 123 -87 210t-210 87q-125 0 -212 -87t-87 -210v-182zM393 1458h137l138 -241h-138 z" />
<glyph unicode="&#xe1;" d="M102 414v182q0 174 125 299t301.5 125t298.5 -123v123h127v-1032h-127v125q-129 -125 -299 -125q-176 0 -301 125t-125 301zM229 414q0 -123 87 -211t212 -88q123 0 210 88t87 211v182q0 123 -87 210t-210 87q-125 0 -212 -87t-87 -210v-182zM393 1217l137 241h138 l-138 -241h-137z" />
<glyph unicode="&#xe2;" d="M102 414v182q0 174 125 299t301.5 125t298.5 -123v123h127v-1032h-127v125q-129 -125 -299 -125q-176 0 -301 125t-125 301zM229 414q0 -123 87 -211t212 -88q123 0 210 88t87 211v182q0 123 -87 210t-210 87q-125 0 -212 -87t-87 -210v-182zM326 1217l137 241h137 l137 -241h-96l-111 147l-108 -147h-96z" />
<glyph unicode="&#xe3;" d="M102 414v182q0 174 125 299t301.5 125t298.5 -123v123h127v-1032h-127v125q-129 -125 -299 -125q-176 0 -301 125t-125 301zM176 1303q66 66 108 87t97 21q57 0 168 -51q82 -37 127 -37q35 0 61.5 13.5t71.5 58.5l72 -72q-66 -66 -109 -87.5t-96 -21.5q-57 0 -170 50 q-94 39 -127 39q-59 0 -137 -74zM229 414q0 -123 87 -211t212 -88q123 0 210 88t87 211v182q0 123 -87 210t-210 87q-125 0 -212 -87t-87 -210v-182z" />
<glyph unicode="&#xe4;" d="M102 414v182q0 174 125 299t301.5 125t298.5 -123v123h127v-1032h-127v125q-129 -125 -299 -125q-176 0 -301 125t-125 301zM229 414q0 -123 87 -211t212 -88q123 0 210 88t87 211v182q0 123 -87 210t-210 87q-125 0 -212 -87t-87 -210v-182zM362 1214v125h127v-125h-127 zM567 1214v125h129v-125h-129z" />
<glyph unicode="&#xe5;" d="M102 414v182q0 174 125 299t301.5 125t298.5 -123v123h127v-1032h-127v125q-129 -125 -299 -125q-176 0 -301 125t-125 301zM229 414q0 -123 87 -211t212 -88q123 0 210 88t87 211v182q0 123 -87 210t-210 87q-125 0 -212 -87t-87 -210v-182zM352 1317q0 74 52.5 126 t126 52t126 -52t52.5 -126t-52.5 -126t-126 -52t-126 52t-52.5 126zM457 1319q0 -33 21.5 -54.5t52 -21.5t52 21.5t21.5 54.5q0 29 -21.5 50.5t-52 21.5t-52 -21.5t-21.5 -50.5z" />
<glyph unicode="&#xe6;" horiz-adv-x="1843" d="M113 414v182q0 174 124.5 299t301 125t299.5 -123v123h127v-123q123 123 299 123t301 -124t125 -300v-160h-725v-35q4 -119 91 -202.5t208 -83.5h311v-127h-311q-176 0 -299 123v-123h-127v125q-129 -125 -299 -125q-174 0 -300 125t-126 301zM240 414q0 -123 87 -211 t212 -88q123 0 210 88t87 211v182q0 123 -87 210t-210 87q-125 0 -212 -87t-87 -210v-182zM965 561h596v33q0 123 -87.5 210t-210 87t-210.5 -87t-88 -210v-33z" />
<glyph unicode="&#xe7;" horiz-adv-x="997" d="M129 414v182q0 176 124 300t302 124q102 0 195.5 -48t152.5 -132l-104 -76q-90 129 -244 129q-125 0 -212 -87t-87 -210v-182q0 -123 88 -211t211 -88q152 0 244 129l104 -72q-59 -86 -152.5 -135t-195.5 -49q-178 0 -302 125t-124 301zM422 -375l137 242h137l-137 -242 h-137z" />
<glyph unicode="&#xe8;" horiz-adv-x="1122" d="M150 414v182q0 174 124.5 299t301 125t301 -124t124.5 -300v-160h-725v-22q0 -123 88.5 -211t210.5 -88h312v-127h-312q-174 0 -299.5 125t-125.5 301zM276 563h596v33q0 123 -87 210t-209.5 87t-211 -87t-88.5 -210v-33zM438 1458h137l138 -241h-138z" />
<glyph unicode="&#xe9;" horiz-adv-x="1122" d="M150 414v182q0 174 124.5 299t301 125t301 -124t124.5 -300v-160h-725v-22q0 -123 88.5 -211t210.5 -88h312v-127h-312q-174 0 -299.5 125t-125.5 301zM276 563h596v33q0 123 -87 210t-209.5 87t-211 -87t-88.5 -210v-33zM438 1217l137 241h138l-138 -241h-137z" />
<glyph unicode="&#xea;" horiz-adv-x="1122" d="M150 414v182q0 174 124.5 299t301 125t301 -124t124.5 -300v-160h-725v-22q0 -123 88.5 -211t210.5 -88h312v-127h-312q-174 0 -299.5 125t-125.5 301zM276 563h596v33q0 123 -87 210t-209.5 87t-211 -87t-88.5 -210v-33zM369 1217l137 241h137l137 -241h-96l-111 147 l-108 -147h-96z" />
<glyph unicode="&#xeb;" horiz-adv-x="1122" d="M150 414v182q0 174 124.5 299t301 125t301 -124t124.5 -300v-160h-725v-22q0 -123 88.5 -211t210.5 -88h312v-127h-312q-174 0 -299.5 125t-125.5 301zM276 563h596v33q0 123 -87 210t-209.5 87t-211 -87t-88.5 -210v-33zM408 1214v125h127v-125h-127zM612 1214v125h129 v-125h-129z" />
<glyph unicode="&#xec;" horiz-adv-x="501" d="M109 1458h137l137 -241h-137zM184 0v1008h125v-1008h-125z" />
<glyph unicode="&#xed;" horiz-adv-x="501" d="M109 1217l137 241h137l-137 -241h-137zM184 0v1008h125v-1008h-125z" />
<glyph unicode="&#xee;" horiz-adv-x="501" d="M41 1217l137 241h137l138 -241h-97l-110 147l-109 -147h-96zM184 0v1008h125v-1008h-125z" />
<glyph unicode="&#xef;" horiz-adv-x="501" d="M80 1214v125h127v-125h-127zM184 0v1008h125v-1008h-125zM285 1214v125h129v-125h-129z" />
<glyph unicode="&#xf0;" horiz-adv-x="1163" d="M131 410v186q0 174 126 299t304 125q162 0 297 -125v279h-133v129h133v129h125v-129h129v-129h-129v-1186h-125v123q-133 -123 -297 -123q-178 0 -304 125t-126 297zM260 410q0 -123 88 -211t213 -88q121 0 209 89t88 210v186q0 121 -88 208t-209 87q-125 0 -213 -87 t-88 -208v-186z" />
<glyph unicode="&#xf1;" d="M109 0v1020h122v-121q121 121 295 121q172 0 296 -123t124 -297v-600h-127v600q0 123 -86 209t-207 86q-123 0 -208 -86t-85 -209v-600h-124zM176 1298q66 66 108 87.5t97 21.5q57 0 168 -51q82 -37 127 -37q35 0 61.5 13.5t71.5 58.5l72 -72q-66 -66 -109 -87.5 t-96 -21.5q-57 0 -170 50q-94 39 -127 38q-59 0 -137 -73z" />
<glyph unicode="&#xf2;" horiz-adv-x="1116" d="M131 412v182q0 174 125 300t301 126t304 -126t128 -300v-182q0 -176 -127 -300t-305 -124q-176 0 -301 124t-125 300zM260 412q0 -125 88 -213t209 -88q123 0 212 88t89 213v182q0 123 -89 210t-212 87q-121 0 -209 -87t-88 -210v-182zM420 1458h137l137 -241h-137z" />
<glyph unicode="&#xf3;" horiz-adv-x="1116" d="M131 412v182q0 174 125 300t301 126t304 -126t128 -300v-182q0 -176 -127 -300t-305 -124q-176 0 -301 124t-125 300zM260 412q0 -125 88 -213t209 -88q123 0 212 88t89 213v182q0 123 -89 210t-212 87q-121 0 -209 -87t-88 -210v-182zM420 1217l137 241h137l-137 -241 h-137z" />
<glyph unicode="&#xf4;" horiz-adv-x="1122" d="M147 412v182q0 174 125 300t301.5 126t304.5 -126t128 -300v-182q0 -176 -127 -300t-306 -124q-176 0 -301 124t-125 300zM276 412q0 -125 88.5 -213t208.5 -88q123 0 212 88t89 213v182q0 123 -89 210t-212 87q-121 0 -209 -87t-88 -210v-182zM369 1217l137 241h137 l137 -241h-96l-111 147l-108 -147h-96z" />
<glyph unicode="&#xf5;" horiz-adv-x="1116" d="M131 412v182q0 174 125 300t301 126t304 -126t128 -300v-182q0 -176 -127 -300t-305 -124q-176 0 -301 124t-125 300zM207 1303q66 66 107.5 87t97.5 21q57 0 168 -51q82 -37 127 -37q35 0 61.5 13.5t71.5 58.5l71 -72q-66 -66 -108.5 -87.5t-95.5 -21.5q-57 0 -170 50 q-94 39 -127 39q-59 0 -138 -74zM260 412q0 -125 88 -213t209 -88q123 0 212 88t89 213v182q0 123 -89 210t-212 87q-121 0 -209 -87t-88 -210v-182z" />
<glyph unicode="&#xf6;" horiz-adv-x="1116" d="M131 412v182q0 174 125 300t301 126t304 -126t128 -300v-182q0 -176 -127 -300t-305 -124q-176 0 -301 124t-125 300zM260 412q0 -125 88 -213t209 -88q123 0 212 88t89 213v182q0 123 -89 210t-212 87q-121 0 -209 -87t-88 -210v-182zM391 1214v125h127v-125h-127z M596 1214v125h129v-125h-129z" />
<glyph unicode="&#xf7;" horiz-adv-x="1050" d="M106 700h836v127h-836v-127zM457 444v131h129v-131h-129zM457 954v131h129v-131h-129z" />
<glyph unicode="&#xf8;" horiz-adv-x="1116" d="M131 158l51 53q-51 92 -51 203v180q0 176 125 301t299 125q180 0 305 -131l43 41l80 -78l-53 -55q51 -98 51 -203v-180q0 -176 -126 -301t-300 -125q-178 0 -303 131l-43 -39zM258 414q0 -51 21 -107l493 492q-92 92 -217 92q-123 0 -210 -86t-87 -211v-180zM342 209 q88 -94 213 -94t211 87t86 212v180q0 57 -18 106z" />
<glyph unicode="&#xf9;" horiz-adv-x="1202" d="M174 412v596h127v-596q0 -123 84 -209t203 -86q123 0 210 86t87 209v596h127v-1020h-127v123q-117 -123 -297 -123q-170 0 -292 124t-122 300zM451 1458h137l137 -241h-137z" />
<glyph unicode="&#xfa;" horiz-adv-x="1202" d="M174 412v596h127v-596q0 -123 84 -209t203 -86q123 0 210 86t87 209v596h127v-1020h-127v123q-117 -123 -297 -123q-170 0 -292 124t-122 300zM451 1217l137 241h137l-137 -241h-137z" />
<glyph unicode="&#xfb;" horiz-adv-x="1202" d="M174 412v596h127v-596q0 -123 84 -209t203 -86q123 0 210 86t87 209v596h127v-1020h-127v123q-117 -123 -297 -123q-170 0 -292 124t-122 300zM383 1217l137 241h137l138 -241h-97l-110 147l-109 -147h-96z" />
<glyph unicode="&#xfc;" horiz-adv-x="1202" d="M174 412v596h127v-596q0 -123 84 -209t203 -86q123 0 210 86t87 209v596h127v-1020h-127v123q-117 -123 -297 -123q-170 0 -292 124t-122 300zM422 1214v125h127v-125h-127zM627 1214v125h129v-125h-129z" />
<glyph unicode="&#xfd;" horiz-adv-x="1091" d="M127 412v596h125v-596q0 -123 86 -208t209 -85q121 0 206 85t85 208v596h127v-1014q0 -174 -123 -297t-295 -123h-182v125h182q121 0 206 86t85 209v119q-119 -119 -291 -119q-174 0 -297 122t-123 296zM410 1217l137 241h137l-137 -241h-137z" />
<glyph unicode="&#xfe;" horiz-adv-x="1167" d="M184 -442v1693h127v-352q117 121 297 121q176 0 302 -125t126 -301v-180q0 -178 -125 -301t-303 -123q-176 0 -297 116v-548h-127zM311 414q0 -125 88 -214t209 -89q125 0 212 88t87 215v180q0 123 -87 210t-212 87q-121 0 -209 -87t-88 -210v-180z" />
<glyph unicode="&#xff;" horiz-adv-x="1091" d="M127 412v596h125v-596q0 -123 86 -208t209 -85q121 0 206 85t85 208v596h127v-1014q0 -174 -123 -297t-295 -123h-182v125h182q121 0 206 86t85 209v119q-119 -119 -291 -119q-174 0 -297 122t-123 296zM379 1133v124h127v-124h-127zM584 1133v124h129v-124h-129z" />
<glyph unicode="&#x152;" horiz-adv-x="1024" d="M-381 584v290q0 248 178 422t432 174q143 0 269.5 -61t212.5 -168v219h1095v-129h-966v-536h829v-129h-829v-537h966v-129h-1095v217q-86 -106 -212 -167.5t-270 -61.5q-254 0 -432 175t-178 421zM-252 584q0 -195 140.5 -331t341 -136t341 136t140.5 331v290 q0 195 -141.5 333.5t-340 138.5t-340 -138.5t-141.5 -333.5v-290z" />
<glyph unicode="&#x153;" horiz-adv-x="1822" d="M102 412v182q0 174 125 300t301 126q113 0 211.5 -56.5t155.5 -150.5q57 94 154.5 149.5t210.5 55.5q176 0 301 -124t125 -300v-160h-725v-22v-13q4 -119 91 -202.5t208 -83.5h311v-127h-311q-113 0 -210.5 55t-152.5 149q-59 -94 -156.5 -148t-212.5 -54 q-176 0 -301 124t-125 300zM231 412q0 -125 88.5 -213t208.5 -88q123 0 212 88t89 213v182q0 123 -89 210t-212 87q-121 0 -209 -87t-88 -210v-182zM961 561h595v33q0 123 -87 210t-209.5 87t-210.5 -87t-88 -210v-33z" />
<glyph unicode="&#x178;" horiz-adv-x="1128" d="M18 1458h154l391 -596l395 596h154l-483 -731v-727h-129v727zM397 1583v125h127v-125h-127zM602 1583v125h129v-125h-129z" />
<glyph unicode="&#x2c6;" horiz-adv-x="1058" d="M326 1217l137 241h137l137 -241h-96l-111 147l-108 -147h-96z" />
<glyph unicode="&#x2dc;" d="M176 1303q66 66 108 87t97 21q57 0 168 -51q82 -37 127 -37q35 0 61.5 13.5t71.5 58.5l72 -72q-66 -66 -109 -87.5t-96 -21.5q-57 0 -170 50q-94 39 -127 39q-59 0 -137 -74z" />
<glyph unicode="&#x2000;" horiz-adv-x="968" />
<glyph unicode="&#x2001;" horiz-adv-x="1937" />
<glyph unicode="&#x2002;" horiz-adv-x="968" />
<glyph unicode="&#x2003;" horiz-adv-x="1937" />
<glyph unicode="&#x2004;" horiz-adv-x="645" />
<glyph unicode="&#x2005;" horiz-adv-x="483" />
<glyph unicode="&#x2006;" horiz-adv-x="321" />
<glyph unicode="&#x2007;" horiz-adv-x="321" />
<glyph unicode="&#x2008;" horiz-adv-x="241" />
<glyph unicode="&#x2009;" horiz-adv-x="387" />
<glyph unicode="&#x200a;" horiz-adv-x="106" />
<glyph unicode="&#x2010;" horiz-adv-x="813" d="M156 483v127h506v-127h-506z" />
<glyph unicode="&#x2011;" horiz-adv-x="813" d="M156 483v127h506v-127h-506z" />
<glyph unicode="&#x2012;" horiz-adv-x="813" d="M156 483v127h506v-127h-506z" />
<glyph unicode="&#x2013;" horiz-adv-x="1069" d="M106 487v131h857v-131h-857z" />
<glyph unicode="&#x2014;" horiz-adv-x="1871" d="M156 483v131h1560v-131h-1560z" />
<glyph unicode="&#x2018;" horiz-adv-x="481" d="M180 1327v129l129 129v-258h-129z" />
<glyph unicode="&#x2019;" horiz-adv-x="487" d="M180 1200v258h129v-129z" />
<glyph unicode="&#x201a;" horiz-adv-x="489" d="M180 -131v262h127v-131z" />
<glyph unicode="&#x201c;" horiz-adv-x="704" d="M180 1460v129l129 129v-258h-129zM387 1460v129l129 129v-258h-129z" />
<glyph unicode="&#x201d;" horiz-adv-x="708" d="M180 1458v258h129v-129zM387 1458v258h129v-129z" />
<glyph unicode="&#x201e;" horiz-adv-x="655" d="M158 -131v262h127v-131zM362 -131v262h127v-131z" />
<glyph unicode="&#x2022;" horiz-adv-x="688" d="M59 731q0 121 85 205t204 84t204 -84t85 -205t-85 -205t-204 -84t-204 84t-85 205z" />
<glyph unicode="&#x2026;" horiz-adv-x="1005" d="M180 0v131h127v-131h-127zM436 0v131h127v-131h-127zM694 0v131h127v-131h-127z" />
<glyph unicode="&#x202f;" horiz-adv-x="387" />
<glyph unicode="&#x2039;" horiz-adv-x="483" d="M111 729l274 277v-88l-25 -25l-78 -79l-85 -85l188 -188v-86z" />
<glyph unicode="&#x203a;" horiz-adv-x="483" d="M111 455v86l188 188l-85 85l-79 79l-24 25v88l274 -277z" />
<glyph unicode="&#x205f;" horiz-adv-x="483" />
<glyph unicode="&#x20ac;" horiz-adv-x="1439" d="M29 539v125h125v127h-125v127h125q16 231 193 391.5t417 160.5q182 0 329.5 -95t221.5 -247l-107 -73q-55 129 -175 208.5t-269 79.5q-188 0 -325.5 -123.5t-153.5 -301.5h481v-127h-483v-127h483v-125h-481q16 -180 153 -301t326 -121q147 0 268 79.5t176 206.5l107 -73 q-59 -139 -215 -240.5t-336 -101.5q-242 0 -417 159.5t-191 391.5h-127z" />
<glyph unicode="&#x2122;" horiz-adv-x="1036" d="M98 1378v80h338v-80h-131v-368h-78v368h-129zM477 1010v448h98l125 -336l127 336h97v-448h-80v286l-103 -286h-82l-100 288v-288h-82z" />
<glyph unicode="&#xe000;" horiz-adv-x="1010" d="M0 1010h1010v-1010h-1010v1010z" />
<glyph unicode="&#xfb01;" horiz-adv-x="819" d="M90 903v125h127v109q0 174 125 298t295 124v-127q-119 0 -205 -87.5t-86 -207.5v-109h416v-1028h-125v909l-4 -6h-287v-903h-129v903h-127zM637 1309v123h125v-123h-125z" />
<glyph unicode="&#xfb02;" horiz-adv-x="696" d="M90 903v125h127v109q0 174 125 298t295 124v-127q-119 0 -205 -87.5t-86 -207.5v-109h291v-125h-291v-903h-129v903h-127zM637 0h129v1432h-129v-1432z" />
<glyph unicode="&#xfb03;" horiz-adv-x="1894" d="M1577 0v1008h125v-1008h-125zM1577 1130v123h125v-123h-125zM786 903v125h127v109q0 174 125 298t295 124v-127q-119 0 -205 -87.5t-86 -207.5v-109h287v-125h-287v-903h-129v903h-127zM90 903v125h127v109q0 174 125 298t295 124v-127q-119 0 -205 -87.5t-86 -207.5 v-109h287v-125h-287v-903h-129v903h-127z" />
<glyph unicode="&#xfb04;" horiz-adv-x="1886" d="M1573 0v1409h127v-1409h-127zM786 903v125h127v109q0 174 125 298t295 124v-127q-119 0 -205 -87.5t-86 -207.5v-109h287v-125h-287v-903h-129v903h-127zM90 903v125h127v109q0 174 125 298t295 124v-127q-119 0 -205 -87.5t-86 -207.5v-109h287v-125h-287v-903h-129v903 h-127z" />
</font>
</defs>
</svg>
